solid
facet normal 0.0 -1.0 0.0
 outer loop
  vertex 0.0 6.0 0.0
  vertex 1.0 6.0 1.0
  vertex 0.0 6.0 1.0
 endloop
endfacet
facet normal 0.0 -1.0 0.0
 outer loop
  vertex 1.0 6.0 0.0
  vertex 1.0 6.0 1.0
  vertex 0.0 6.0 0.0
 endloop
endfacet
facet normal 0.0 1.0 0.0
 outer loop
  vertex 1.0 24.0 1.0
  vertex 0.0 24.0 0.0
  vertex 0.0 24.0 1.0
 endloop
endfacet
facet normal 0.0 1.0 0.0
 outer loop
  vertex 1.0 24.0 1.0
  vertex 1.0 24.0 0.0
  vertex 0.0 24.0 0.0
 endloop
endfacet
facet normal 0.0 -1.0 0.0
 outer loop
  vertex 1.0 6.0 0.0
  vertex 2.0 6.0 1.0
  vertex 1.0 6.0 1.0
 endloop
endfacet
facet normal 0.0 -1.0 0.0
 outer loop
  vertex 2.0 6.0 0.0
  vertex 2.0 6.0 1.0
  vertex 1.0 6.0 0.0
 endloop
endfacet
facet normal 0.0 1.0 0.0
 outer loop
  vertex 2.0 24.0 1.0
  vertex 1.0 24.0 0.0
  vertex 1.0 24.0 1.0
 endloop
endfacet
facet normal 0.0 1.0 0.0
 outer loop
  vertex 2.0 24.0 1.0
  vertex 2.0 24.0 0.0
  vertex 1.0 24.0 0.0
 endloop
endfacet
facet normal 0.0 -1.0 0.0
 outer loop
  vertex 2.0 6.0 0.0
  vertex 3.0 6.0 1.0
  vertex 2.0 6.0 1.0
 endloop
endfacet
facet normal 0.0 -1.0 0.0
 outer loop
  vertex 3.0 6.0 0.0
  vertex 3.0 6.0 1.0
  vertex 2.0 6.0 0.0
 endloop
endfacet
facet normal 0.0 1.0 0.0
 outer loop
  vertex 3.0 24.0 1.0
  vertex 2.0 24.0 0.0
  vertex 2.0 24.0 1.0
 endloop
endfacet
facet normal 0.0 1.0 0.0
 outer loop
  vertex 3.0 24.0 1.0
  vertex 3.0 24.0 0.0
  vertex 2.0 24.0 0.0
 endloop
endfacet
facet normal 0.0 -1.0 0.0
 outer loop
  vertex 3.0 6.0 0.0
  vertex 4.0 6.0 1.0
  vertex 3.0 6.0 1.0
 endloop
endfacet
facet normal 0.0 -1.0 0.0
 outer loop
  vertex 4.0 6.0 0.0
  vertex 4.0 6.0 1.0
  vertex 3.0 6.0 0.0
 endloop
endfacet
facet normal 0.0 1.0 0.0
 outer loop
  vertex 4.0 24.0 1.0
  vertex 3.0 24.0 0.0
  vertex 3.0 24.0 1.0
 endloop
endfacet
facet normal 0.0 1.0 0.0
 outer loop
  vertex 4.0 24.0 1.0
  vertex 4.0 24.0 0.0
  vertex 3.0 24.0 0.0
 endloop
endfacet
facet normal 0.0 -1.0 0.0
 outer loop
  vertex 4.0 6.0 0.0
  vertex 5.0 6.0 1.0
  vertex 4.0 6.0 1.0
 endloop
endfacet
facet normal 0.0 -1.0 0.0
 outer loop
  vertex 5.0 6.0 0.0
  vertex 5.0 6.0 1.0
  vertex 4.0 6.0 0.0
 endloop
endfacet
facet normal 0.0 1.0 0.0
 outer loop
  vertex 5.0 24.0 1.0
  vertex 4.0 24.0 0.0
  vertex 4.0 24.0 1.0
 endloop
endfacet
facet normal 0.0 1.0 0.0
 outer loop
  vertex 5.0 24.0 1.0
  vertex 5.0 24.0 0.0
  vertex 4.0 24.0 0.0
 endloop
endfacet
facet normal nan nan nan
 outer loop
  vertex 5.0 6.0 1.0
  vertex 5.0 6.0 1.0
  vertex 5.0 6.0 0.0
 endloop
endfacet
facet normal nan nan nan
 outer loop
  vertex 5.0 6.0 1.0
  vertex 5.0 6.0 0.0
  vertex 5.0 6.0 0.0
 endloop
endfacet
facet normal 0.7071067690849304 -0.7071067690849304 0.0
 outer loop
  vertex 5.0 6.0 0.0
  vertex 6.0 7.0 0.0
  vertex 5.0 6.0 1.0
 endloop
endfacet
facet normal 0.7071067690849304 -0.7071067690849304 0.0
 outer loop
  vertex 5.0 6.0 1.0
  vertex 6.0 7.0 0.0
  vertex 6.0 7.0 1.0
 endloop
endfacet
facet normal 0.0 1.0 0.0
 outer loop
  vertex 6.0 24.0 1.0
  vertex 5.0 24.0 0.0
  vertex 5.0 24.0 1.0
 endloop
endfacet
facet normal 0.0 1.0 0.0
 outer loop
  vertex 6.0 24.0 1.0
  vertex 6.0 24.0 0.0
  vertex 5.0 24.0 0.0
 endloop
endfacet
facet normal 0.0 -1.0 0.0
 outer loop
  vertex 6.0 7.0 0.0
  vertex 7.0 7.0 1.0
  vertex 6.0 7.0 1.0
 endloop
endfacet
facet normal 0.0 -1.0 0.0
 outer loop
  vertex 7.0 7.0 0.0
  vertex 7.0 7.0 1.0
  vertex 6.0 7.0 0.0
 endloop
endfacet
facet normal 0.0 1.0 0.0
 outer loop
  vertex 7.0 24.0 1.0
  vertex 6.0 24.0 0.0
  vertex 6.0 24.0 1.0
 endloop
endfacet
facet normal 0.0 1.0 0.0
 outer loop
  vertex 7.0 24.0 1.0
  vertex 7.0 24.0 0.0
  vertex 6.0 24.0 0.0
 endloop
endfacet
facet normal nan nan nan
 outer loop
  vertex 7.0 7.0 1.0
  vertex 7.0 7.0 1.0
  vertex 7.0 7.0 0.0
 endloop
endfacet
facet normal nan nan nan
 outer loop
  vertex 7.0 7.0 1.0
  vertex 7.0 7.0 0.0
  vertex 7.0 7.0 0.0
 endloop
endfacet
facet normal 0.7071067690849304 -0.7071067690849304 0.0
 outer loop
  vertex 7.0 7.0 0.0
  vertex 8.0 8.0 0.0
  vertex 7.0 7.0 1.0
 endloop
endfacet
facet normal 0.7071067690849304 -0.7071067690849304 0.0
 outer loop
  vertex 7.0 7.0 1.0
  vertex 8.0 8.0 0.0
  vertex 8.0 8.0 1.0
 endloop
endfacet
facet normal 0.0 1.0 0.0
 outer loop
  vertex 8.0 24.0 1.0
  vertex 7.0 24.0 0.0
  vertex 7.0 24.0 1.0
 endloop
endfacet
facet normal 0.0 1.0 0.0
 outer loop
  vertex 8.0 24.0 1.0
  vertex 8.0 24.0 0.0
  vertex 7.0 24.0 0.0
 endloop
endfacet
facet normal nan nan nan
 outer loop
  vertex 8.0 8.0 1.0
  vertex 8.0 8.0 1.0
  vertex 8.0 8.0 0.0
 endloop
endfacet
facet normal nan nan nan
 outer loop
  vertex 8.0 8.0 1.0
  vertex 8.0 8.0 0.0
  vertex 8.0 8.0 0.0
 endloop
endfacet
facet normal 0.7071067690849304 -0.7071067690849304 0.0
 outer loop
  vertex 8.0 8.0 0.0
  vertex 9.0 9.0 0.0
  vertex 8.0 8.0 1.0
 endloop
endfacet
facet normal 0.7071067690849304 -0.7071067690849304 0.0
 outer loop
  vertex 8.0 8.0 1.0
  vertex 9.0 9.0 0.0
  vertex 9.0 9.0 1.0
 endloop
endfacet
facet normal 0.0 1.0 0.0
 outer loop
  vertex 9.0 24.0 1.0
  vertex 8.0 24.0 0.0
  vertex 8.0 24.0 1.0
 endloop
endfacet
facet normal 0.0 1.0 0.0
 outer loop
  vertex 9.0 24.0 1.0
  vertex 9.0 24.0 0.0
  vertex 8.0 24.0 0.0
 endloop
endfacet
facet normal nan nan nan
 outer loop
  vertex 9.0 9.0 1.0
  vertex 9.0 9.0 1.0
  vertex 9.0 9.0 0.0
 endloop
endfacet
facet normal nan nan nan
 outer loop
  vertex 9.0 9.0 1.0
  vertex 9.0 9.0 0.0
  vertex 9.0 9.0 0.0
 endloop
endfacet
facet normal 0.7071067690849304 -0.7071067690849304 0.0
 outer loop
  vertex 9.0 9.0 0.0
  vertex 10.0 10.0 0.0
  vertex 9.0 9.0 1.0
 endloop
endfacet
facet normal 0.7071067690849304 -0.7071067690849304 0.0
 outer loop
  vertex 9.0 9.0 1.0
  vertex 10.0 10.0 0.0
  vertex 10.0 10.0 1.0
 endloop
endfacet
facet normal 0.0 1.0 0.0
 outer loop
  vertex 10.0 24.0 1.0
  vertex 9.0 24.0 0.0
  vertex 9.0 24.0 1.0
 endloop
endfacet
facet normal 0.0 1.0 0.0
 outer loop
  vertex 10.0 24.0 1.0
  vertex 10.0 24.0 0.0
  vertex 9.0 24.0 0.0
 endloop
endfacet
facet normal nan nan nan
 outer loop
  vertex 10.0 10.0 1.0
  vertex 10.0 10.0 1.0
  vertex 10.0 10.0 0.0
 endloop
endfacet
facet normal nan nan nan
 outer loop
  vertex 10.0 10.0 1.0
  vertex 10.0 10.0 0.0
  vertex 10.0 10.0 0.0
 endloop
endfacet
facet normal 0.7071067690849304 -0.7071067690849304 0.0
 outer loop
  vertex 10.0 10.0 0.0
  vertex 11.0 11.0 0.0
  vertex 10.0 10.0 1.0
 endloop
endfacet
facet normal 0.7071067690849304 -0.7071067690849304 0.0
 outer loop
  vertex 10.0 10.0 1.0
  vertex 11.0 11.0 0.0
  vertex 11.0 11.0 1.0
 endloop
endfacet
facet normal 0.0 1.0 0.0
 outer loop
  vertex 11.0 24.0 1.0
  vertex 10.0 24.0 0.0
  vertex 10.0 24.0 1.0
 endloop
endfacet
facet normal 0.0 1.0 0.0
 outer loop
  vertex 11.0 24.0 1.0
  vertex 11.0 24.0 0.0
  vertex 10.0 24.0 0.0
 endloop
endfacet
facet normal nan nan nan
 outer loop
  vertex 11.0 11.0 1.0
  vertex 11.0 11.0 1.0
  vertex 11.0 11.0 0.0
 endloop
endfacet
facet normal nan nan nan
 outer loop
  vertex 11.0 11.0 1.0
  vertex 11.0 11.0 0.0
  vertex 11.0 11.0 0.0
 endloop
endfacet
facet normal 0.7071067690849304 -0.7071067690849304 0.0
 outer loop
  vertex 11.0 11.0 0.0
  vertex 12.0 12.0 0.0
  vertex 11.0 11.0 1.0
 endloop
endfacet
facet normal 0.7071067690849304 -0.7071067690849304 0.0
 outer loop
  vertex 11.0 11.0 1.0
  vertex 12.0 12.0 0.0
  vertex 12.0 12.0 1.0
 endloop
endfacet
facet normal 0.0 1.0 0.0
 outer loop
  vertex 12.0 24.0 1.0
  vertex 11.0 24.0 0.0
  vertex 11.0 24.0 1.0
 endloop
endfacet
facet normal 0.0 1.0 0.0
 outer loop
  vertex 12.0 24.0 1.0
  vertex 12.0 24.0 0.0
  vertex 11.0 24.0 0.0
 endloop
endfacet
facet normal nan nan nan
 outer loop
  vertex 12.0 12.0 1.0
  vertex 12.0 12.0 1.0
  vertex 12.0 12.0 0.0
 endloop
endfacet
facet normal nan nan nan
 outer loop
  vertex 12.0 12.0 1.0
  vertex 12.0 12.0 0.0
  vertex 12.0 12.0 0.0
 endloop
endfacet
facet normal 0.7071067690849304 -0.7071067690849304 0.0
 outer loop
  vertex 12.0 12.0 0.0
  vertex 13.0 13.0 0.0
  vertex 12.0 12.0 1.0
 endloop
endfacet
facet normal 0.7071067690849304 -0.7071067690849304 0.0
 outer loop
  vertex 12.0 12.0 1.0
  vertex 13.0 13.0 0.0
  vertex 13.0 13.0 1.0
 endloop
endfacet
facet normal 0.0 1.0 0.0
 outer loop
  vertex 13.0 24.0 1.0
  vertex 12.0 24.0 0.0
  vertex 12.0 24.0 1.0
 endloop
endfacet
facet normal 0.0 1.0 0.0
 outer loop
  vertex 13.0 24.0 1.0
  vertex 13.0 24.0 0.0
  vertex 12.0 24.0 0.0
 endloop
endfacet
facet normal nan nan nan
 outer loop
  vertex 13.0 13.0 1.0
  vertex 13.0 13.0 1.0
  vertex 13.0 13.0 0.0
 endloop
endfacet
facet normal nan nan nan
 outer loop
  vertex 13.0 13.0 1.0
  vertex 13.0 13.0 0.0
  vertex 13.0 13.0 0.0
 endloop
endfacet
facet normal 0.7071067690849304 -0.7071067690849304 0.0
 outer loop
  vertex 13.0 13.0 0.0
  vertex 14.0 14.0 0.0
  vertex 13.0 13.0 1.0
 endloop
endfacet
facet normal 0.7071067690849304 -0.7071067690849304 0.0
 outer loop
  vertex 13.0 13.0 1.0
  vertex 14.0 14.0 0.0
  vertex 14.0 14.0 1.0
 endloop
endfacet
facet normal 0.0 1.0 0.0
 outer loop
  vertex 14.0 24.0 1.0
  vertex 13.0 24.0 0.0
  vertex 13.0 24.0 1.0
 endloop
endfacet
facet normal 0.0 1.0 0.0
 outer loop
  vertex 14.0 24.0 1.0
  vertex 14.0 24.0 0.0
  vertex 13.0 24.0 0.0
 endloop
endfacet
facet normal nan nan nan
 outer loop
  vertex 15.0 6.0 1.0
  vertex 15.0 6.0 1.0
  vertex 15.0 6.0 0.0
 endloop
endfacet
facet normal nan nan nan
 outer loop
  vertex 15.0 6.0 1.0
  vertex 15.0 6.0 0.0
  vertex 15.0 6.0 0.0
 endloop
endfacet
facet normal -1.0 -0.0 0.0
 outer loop
  vertex 15.0 7.0 1.0
  vertex 15.0 6.0 0.0
  vertex 15.0 6.0 1.0
 endloop
endfacet
facet normal -1.0 0.0 0.0
 outer loop
  vertex 15.0 7.0 0.0
  vertex 15.0 6.0 0.0
  vertex 15.0 7.0 1.0
 endloop
endfacet
facet normal nan nan nan
 outer loop
  vertex 15.0 7.0 0.0
  vertex 15.0 7.0 0.0
  vertex 15.0 7.0 1.0
 endloop
endfacet
facet normal nan nan nan
 outer loop
  vertex 15.0 7.0 0.0
  vertex 15.0 7.0 1.0
  vertex 15.0 7.0 1.0
 endloop
endfacet
facet normal nan nan nan
 outer loop
  vertex 14.0 14.0 1.0
  vertex 14.0 14.0 1.0
  vertex 14.0 14.0 0.0
 endloop
endfacet
facet normal nan nan nan
 outer loop
  vertex 14.0 14.0 1.0
  vertex 14.0 14.0 0.0
  vertex 14.0 14.0 0.0
 endloop
endfacet
facet normal 0.7071067690849304 -0.7071067690849304 0.0
 outer loop
  vertex 14.0 14.0 0.0
  vertex 15.0 15.0 0.0
  vertex 14.0 14.0 1.0
 endloop
endfacet
facet normal 0.7071067690849304 -0.7071067690849304 0.0
 outer loop
  vertex 14.0 14.0 1.0
  vertex 15.0 15.0 0.0
  vertex 15.0 15.0 1.0
 endloop
endfacet
facet normal 0.0 1.0 0.0
 outer loop
  vertex 15.0 24.0 1.0
  vertex 14.0 24.0 0.0
  vertex 14.0 24.0 1.0
 endloop
endfacet
facet normal 0.0 1.0 0.0
 outer loop
  vertex 15.0 24.0 1.0
  vertex 15.0 24.0 0.0
  vertex 14.0 24.0 0.0
 endloop
endfacet
facet normal nan nan nan
 outer loop
  vertex 16.0 5.0 1.0
  vertex 16.0 5.0 1.0
  vertex 16.0 5.0 0.0
 endloop
endfacet
facet normal nan nan nan
 outer loop
  vertex 16.0 5.0 1.0
  vertex 16.0 5.0 0.0
  vertex 16.0 5.0 0.0
 endloop
endfacet
facet normal -0.7071067690849304 -0.7071067690849304 0.0
 outer loop
  vertex 15.0 6.0 0.0
  vertex 16.0 5.0 0.0
  vertex 15.0 6.0 1.0
 endloop
endfacet
facet normal -0.7071067690849304 -0.7071067690849304 0.0
 outer loop
  vertex 15.0 6.0 1.0
  vertex 16.0 5.0 0.0
  vertex 16.0 5.0 1.0
 endloop
endfacet
facet normal -0.7071067690849304 0.7071067690849304 0.0
 outer loop
  vertex 15.0 7.0 1.0
  vertex 16.0 8.0 1.0
  vertex 15.0 7.0 0.0
 endloop
endfacet
facet normal -0.7071067690849304 0.7071067690849304 0.0
 outer loop
  vertex 15.0 7.0 0.0
  vertex 16.0 8.0 1.0
  vertex 16.0 8.0 0.0
 endloop
endfacet
facet normal nan nan nan
 outer loop
  vertex 16.0 8.0 0.0
  vertex 16.0 8.0 0.0
  vertex 16.0 8.0 1.0
 endloop
endfacet
facet normal nan nan nan
 outer loop
  vertex 16.0 8.0 0.0
  vertex 16.0 8.0 1.0
  vertex 16.0 8.0 1.0
 endloop
endfacet
facet normal nan nan nan
 outer loop
  vertex 15.0 15.0 1.0
  vertex 15.0 15.0 1.0
  vertex 15.0 15.0 0.0
 endloop
endfacet
facet normal nan nan nan
 outer loop
  vertex 15.0 15.0 1.0
  vertex 15.0 15.0 0.0
  vertex 15.0 15.0 0.0
 endloop
endfacet
facet normal 0.7071067690849304 -0.7071067690849304 0.0
 outer loop
  vertex 15.0 15.0 0.0
  vertex 16.0 16.0 0.0
  vertex 15.0 15.0 1.0
 endloop
endfacet
facet normal 0.7071067690849304 -0.7071067690849304 0.0
 outer loop
  vertex 15.0 15.0 1.0
  vertex 16.0 16.0 0.0
  vertex 16.0 16.0 1.0
 endloop
endfacet
facet normal 0.0 1.0 0.0
 outer loop
  vertex 16.0 24.0 1.0
  vertex 15.0 24.0 0.0
  vertex 15.0 24.0 1.0
 endloop
endfacet
facet normal 0.0 1.0 0.0
 outer loop
  vertex 16.0 24.0 1.0
  vertex 16.0 24.0 0.0
  vertex 15.0 24.0 0.0
 endloop
endfacet
facet normal 0.0 -1.0 0.0
 outer loop
  vertex 16.0 5.0 0.0
  vertex 17.0 5.0 1.0
  vertex 16.0 5.0 1.0
 endloop
endfacet
facet normal 0.0 -1.0 0.0
 outer loop
  vertex 17.0 5.0 0.0
  vertex 17.0 5.0 1.0
  vertex 16.0 5.0 0.0
 endloop
endfacet
facet normal -0.7071067690849304 0.7071067690849304 0.0
 outer loop
  vertex 16.0 8.0 1.0
  vertex 17.0 9.0 1.0
  vertex 16.0 8.0 0.0
 endloop
endfacet
facet normal -0.7071067690849304 0.7071067690849304 0.0
 outer loop
  vertex 16.0 8.0 0.0
  vertex 17.0 9.0 1.0
  vertex 17.0 9.0 0.0
 endloop
endfacet
facet normal nan nan nan
 outer loop
  vertex 17.0 9.0 0.0
  vertex 17.0 9.0 0.0
  vertex 17.0 9.0 1.0
 endloop
endfacet
facet normal nan nan nan
 outer loop
  vertex 17.0 9.0 0.0
  vertex 17.0 9.0 1.0
  vertex 17.0 9.0 1.0
 endloop
endfacet
facet normal 0.0 -1.0 0.0
 outer loop
  vertex 16.0 16.0 0.0
  vertex 17.0 16.0 1.0
  vertex 16.0 16.0 1.0
 endloop
endfacet
facet normal 0.0 -1.0 0.0
 outer loop
  vertex 17.0 16.0 0.0
  vertex 17.0 16.0 1.0
  vertex 16.0 16.0 0.0
 endloop
endfacet
facet normal 0.0 1.0 0.0
 outer loop
  vertex 17.0 24.0 1.0
  vertex 16.0 24.0 0.0
  vertex 16.0 24.0 1.0
 endloop
endfacet
facet normal 0.0 1.0 0.0
 outer loop
  vertex 17.0 24.0 1.0
  vertex 17.0 24.0 0.0
  vertex 16.0 24.0 0.0
 endloop
endfacet
facet normal 0.0 -1.0 0.0
 outer loop
  vertex 17.0 5.0 0.0
  vertex 18.0 5.0 1.0
  vertex 17.0 5.0 1.0
 endloop
endfacet
facet normal 0.0 -1.0 0.0
 outer loop
  vertex 18.0 5.0 0.0
  vertex 18.0 5.0 1.0
  vertex 17.0 5.0 0.0
 endloop
endfacet
facet normal -0.7071067690849304 0.7071067690849304 0.0
 outer loop
  vertex 17.0 9.0 1.0
  vertex 18.0 10.0 1.0
  vertex 17.0 9.0 0.0
 endloop
endfacet
facet normal -0.7071067690849304 0.7071067690849304 0.0
 outer loop
  vertex 17.0 9.0 0.0
  vertex 18.0 10.0 1.0
  vertex 18.0 10.0 0.0
 endloop
endfacet
facet normal nan nan nan
 outer loop
  vertex 18.0 10.0 0.0
  vertex 18.0 10.0 0.0
  vertex 18.0 10.0 1.0
 endloop
endfacet
facet normal nan nan nan
 outer loop
  vertex 18.0 10.0 0.0
  vertex 18.0 10.0 1.0
  vertex 18.0 10.0 1.0
 endloop
endfacet
facet normal nan nan nan
 outer loop
  vertex 17.0 16.0 1.0
  vertex 17.0 16.0 1.0
  vertex 17.0 16.0 0.0
 endloop
endfacet
facet normal nan nan nan
 outer loop
  vertex 17.0 16.0 1.0
  vertex 17.0 16.0 0.0
  vertex 17.0 16.0 0.0
 endloop
endfacet
facet normal 0.7071067690849304 -0.7071067690849304 0.0
 outer loop
  vertex 17.0 16.0 0.0
  vertex 18.0 17.0 0.0
  vertex 17.0 16.0 1.0
 endloop
endfacet
facet normal 0.7071067690849304 -0.7071067690849304 0.0
 outer loop
  vertex 17.0 16.0 1.0
  vertex 18.0 17.0 0.0
  vertex 18.0 17.0 1.0
 endloop
endfacet
facet normal 0.0 1.0 0.0
 outer loop
  vertex 18.0 24.0 1.0
  vertex 17.0 24.0 0.0
  vertex 17.0 24.0 1.0
 endloop
endfacet
facet normal 0.0 1.0 0.0
 outer loop
  vertex 18.0 24.0 1.0
  vertex 18.0 24.0 0.0
  vertex 17.0 24.0 0.0
 endloop
endfacet
facet normal 0.0 -1.0 0.0
 outer loop
  vertex 18.0 5.0 0.0
  vertex 19.0 5.0 1.0
  vertex 18.0 5.0 1.0
 endloop
endfacet
facet normal 0.0 -1.0 0.0
 outer loop
  vertex 19.0 5.0 0.0
  vertex 19.0 5.0 1.0
  vertex 18.0 5.0 0.0
 endloop
endfacet
facet normal -0.7071067690849304 0.7071067690849304 0.0
 outer loop
  vertex 18.0 10.0 1.0
  vertex 19.0 11.0 1.0
  vertex 18.0 10.0 0.0
 endloop
endfacet
facet normal -0.7071067690849304 0.7071067690849304 0.0
 outer loop
  vertex 18.0 10.0 0.0
  vertex 19.0 11.0 1.0
  vertex 19.0 11.0 0.0
 endloop
endfacet
facet normal nan nan nan
 outer loop
  vertex 19.0 11.0 0.0
  vertex 19.0 11.0 0.0
  vertex 19.0 11.0 1.0
 endloop
endfacet
facet normal nan nan nan
 outer loop
  vertex 19.0 11.0 0.0
  vertex 19.0 11.0 1.0
  vertex 19.0 11.0 1.0
 endloop
endfacet
facet normal nan nan nan
 outer loop
  vertex 18.0 17.0 1.0
  vertex 18.0 17.0 1.0
  vertex 18.0 17.0 0.0
 endloop
endfacet
facet normal nan nan nan
 outer loop
  vertex 18.0 17.0 1.0
  vertex 18.0 17.0 0.0
  vertex 18.0 17.0 0.0
 endloop
endfacet
facet normal 0.7071067690849304 -0.7071067690849304 0.0
 outer loop
  vertex 18.0 17.0 0.0
  vertex 19.0 18.0 0.0
  vertex 18.0 17.0 1.0
 endloop
endfacet
facet normal 0.7071067690849304 -0.7071067690849304 0.0
 outer loop
  vertex 18.0 17.0 1.0
  vertex 19.0 18.0 0.0
  vertex 19.0 18.0 1.0
 endloop
endfacet
facet normal 0.0 1.0 0.0
 outer loop
  vertex 19.0 24.0 1.0
  vertex 18.0 24.0 0.0
  vertex 18.0 24.0 1.0
 endloop
endfacet
facet normal 0.0 1.0 0.0
 outer loop
  vertex 19.0 24.0 1.0
  vertex 19.0 24.0 0.0
  vertex 18.0 24.0 0.0
 endloop
endfacet
facet normal nan nan nan
 outer loop
  vertex 20.0 4.0 1.0
  vertex 20.0 4.0 1.0
  vertex 20.0 4.0 0.0
 endloop
endfacet
facet normal nan nan nan
 outer loop
  vertex 20.0 4.0 1.0
  vertex 20.0 4.0 0.0
  vertex 20.0 4.0 0.0
 endloop
endfacet
facet normal -0.7071067690849304 -0.7071067690849304 0.0
 outer loop
  vertex 19.0 5.0 0.0
  vertex 20.0 4.0 0.0
  vertex 19.0 5.0 1.0
 endloop
endfacet
facet normal -0.7071067690849304 -0.7071067690849304 0.0
 outer loop
  vertex 19.0 5.0 1.0
  vertex 20.0 4.0 0.0
  vertex 20.0 4.0 1.0
 endloop
endfacet
facet normal -0.7071067690849304 0.7071067690849304 0.0
 outer loop
  vertex 19.0 11.0 1.0
  vertex 20.0 12.0 1.0
  vertex 19.0 11.0 0.0
 endloop
endfacet
facet normal -0.7071067690849304 0.7071067690849304 0.0
 outer loop
  vertex 19.0 11.0 0.0
  vertex 20.0 12.0 1.0
  vertex 20.0 12.0 0.0
 endloop
endfacet
facet normal nan nan nan
 outer loop
  vertex 20.0 12.0 0.0
  vertex 20.0 12.0 0.0
  vertex 20.0 12.0 1.0
 endloop
endfacet
facet normal nan nan nan
 outer loop
  vertex 20.0 12.0 0.0
  vertex 20.0 12.0 1.0
  vertex 20.0 12.0 1.0
 endloop
endfacet
facet normal nan nan nan
 outer loop
  vertex 19.0 18.0 1.0
  vertex 19.0 18.0 1.0
  vertex 19.0 18.0 0.0
 endloop
endfacet
facet normal nan nan nan
 outer loop
  vertex 19.0 18.0 1.0
  vertex 19.0 18.0 0.0
  vertex 19.0 18.0 0.0
 endloop
endfacet
facet normal 0.7071067690849304 -0.7071067690849304 0.0
 outer loop
  vertex 19.0 18.0 0.0
  vertex 20.0 19.0 0.0
  vertex 19.0 18.0 1.0
 endloop
endfacet
facet normal 0.7071067690849304 -0.7071067690849304 0.0
 outer loop
  vertex 19.0 18.0 1.0
  vertex 20.0 19.0 0.0
  vertex 20.0 19.0 1.0
 endloop
endfacet
facet normal 0.0 1.0 0.0
 outer loop
  vertex 20.0 24.0 1.0
  vertex 19.0 24.0 0.0
  vertex 19.0 24.0 1.0
 endloop
endfacet
facet normal 0.0 1.0 0.0
 outer loop
  vertex 20.0 24.0 1.0
  vertex 20.0 24.0 0.0
  vertex 19.0 24.0 0.0
 endloop
endfacet
facet normal 0.0 -1.0 0.0
 outer loop
  vertex 20.0 4.0 0.0
  vertex 21.0 4.0 1.0
  vertex 20.0 4.0 1.0
 endloop
endfacet
facet normal 0.0 -1.0 0.0
 outer loop
  vertex 21.0 4.0 0.0
  vertex 21.0 4.0 1.0
  vertex 20.0 4.0 0.0
 endloop
endfacet
facet normal -0.7071067690849304 0.7071067690849304 0.0
 outer loop
  vertex 20.0 12.0 1.0
  vertex 21.0 13.0 1.0
  vertex 20.0 12.0 0.0
 endloop
endfacet
facet normal -0.7071067690849304 0.7071067690849304 0.0
 outer loop
  vertex 20.0 12.0 0.0
  vertex 21.0 13.0 1.0
  vertex 21.0 13.0 0.0
 endloop
endfacet
facet normal nan nan nan
 outer loop
  vertex 21.0 13.0 0.0
  vertex 21.0 13.0 0.0
  vertex 21.0 13.0 1.0
 endloop
endfacet
facet normal nan nan nan
 outer loop
  vertex 21.0 13.0 0.0
  vertex 21.0 13.0 1.0
  vertex 21.0 13.0 1.0
 endloop
endfacet
facet normal nan nan nan
 outer loop
  vertex 20.0 19.0 1.0
  vertex 20.0 19.0 1.0
  vertex 20.0 19.0 0.0
 endloop
endfacet
facet normal nan nan nan
 outer loop
  vertex 20.0 19.0 1.0
  vertex 20.0 19.0 0.0
  vertex 20.0 19.0 0.0
 endloop
endfacet
facet normal 0.7071067690849304 -0.7071067690849304 0.0
 outer loop
  vertex 20.0 19.0 0.0
  vertex 21.0 20.0 0.0
  vertex 20.0 19.0 1.0
 endloop
endfacet
facet normal 0.7071067690849304 -0.7071067690849304 0.0
 outer loop
  vertex 20.0 19.0 1.0
  vertex 21.0 20.0 0.0
  vertex 21.0 20.0 1.0
 endloop
endfacet
facet normal 0.7071067690849304 0.7071067690849304 0.0
 outer loop
  vertex 20.0 24.0 1.0
  vertex 21.0 23.0 1.0
  vertex 20.0 24.0 0.0
 endloop
endfacet
facet normal 0.7071067690849304 0.7071067690849304 0.0
 outer loop
  vertex 20.0 24.0 0.0
  vertex 21.0 23.0 1.0
  vertex 21.0 23.0 0.0
 endloop
endfacet
facet normal nan nan nan
 outer loop
  vertex 20.0 24.0 0.0
  vertex 20.0 24.0 0.0
  vertex 20.0 24.0 1.0
 endloop
endfacet
facet normal nan nan nan
 outer loop
  vertex 20.0 24.0 0.0
  vertex 20.0 24.0 1.0
  vertex 20.0 24.0 1.0
 endloop
endfacet
facet normal 0.0 -1.0 0.0
 outer loop
  vertex 21.0 4.0 0.0
  vertex 22.0 4.0 1.0
  vertex 21.0 4.0 1.0
 endloop
endfacet
facet normal 0.0 -1.0 0.0
 outer loop
  vertex 22.0 4.0 0.0
  vertex 22.0 4.0 1.0
  vertex 21.0 4.0 0.0
 endloop
endfacet
facet normal 0.0 1.0 0.0
 outer loop
  vertex 22.0 13.0 1.0
  vertex 21.0 13.0 0.0
  vertex 21.0 13.0 1.0
 endloop
endfacet
facet normal 0.0 1.0 0.0
 outer loop
  vertex 22.0 13.0 1.0
  vertex 22.0 13.0 0.0
  vertex 21.0 13.0 0.0
 endloop
endfacet
facet normal nan nan nan
 outer loop
  vertex 21.0 20.0 1.0
  vertex 21.0 20.0 1.0
  vertex 21.0 20.0 0.0
 endloop
endfacet
facet normal nan nan nan
 outer loop
  vertex 21.0 20.0 1.0
  vertex 21.0 20.0 0.0
  vertex 21.0 20.0 0.0
 endloop
endfacet
facet normal 0.7071067690849304 -0.7071067690849304 0.0
 outer loop
  vertex 21.0 20.0 0.0
  vertex 22.0 21.0 0.0
  vertex 21.0 20.0 1.0
 endloop
endfacet
facet normal 0.7071067690849304 -0.7071067690849304 0.0
 outer loop
  vertex 21.0 20.0 1.0
  vertex 22.0 21.0 0.0
  vertex 22.0 21.0 1.0
 endloop
endfacet
facet normal 0.0 1.0 0.0
 outer loop
  vertex 22.0 23.0 1.0
  vertex 21.0 23.0 0.0
  vertex 21.0 23.0 1.0
 endloop
endfacet
facet normal 0.0 1.0 0.0
 outer loop
  vertex 22.0 23.0 1.0
  vertex 22.0 23.0 0.0
  vertex 21.0 23.0 0.0
 endloop
endfacet
facet normal 0.0 -1.0 0.0
 outer loop
  vertex 22.0 4.0 0.0
  vertex 23.0 4.0 1.0
  vertex 22.0 4.0 1.0
 endloop
endfacet
facet normal 0.0 -1.0 0.0
 outer loop
  vertex 23.0 4.0 0.0
  vertex 23.0 4.0 1.0
  vertex 22.0 4.0 0.0
 endloop
endfacet
facet normal -0.7071067690849304 0.7071067690849304 0.0
 outer loop
  vertex 22.0 13.0 1.0
  vertex 23.0 14.0 1.0
  vertex 22.0 13.0 0.0
 endloop
endfacet
facet normal -0.7071067690849304 0.7071067690849304 0.0
 outer loop
  vertex 22.0 13.0 0.0
  vertex 23.0 14.0 1.0
  vertex 23.0 14.0 0.0
 endloop
endfacet
facet normal nan nan nan
 outer loop
  vertex 23.0 14.0 0.0
  vertex 23.0 14.0 0.0
  vertex 23.0 14.0 1.0
 endloop
endfacet
facet normal nan nan nan
 outer loop
  vertex 23.0 14.0 0.0
  vertex 23.0 14.0 1.0
  vertex 23.0 14.0 1.0
 endloop
endfacet
facet normal nan nan nan
 outer loop
  vertex 22.0 21.0 1.0
  vertex 22.0 21.0 1.0
  vertex 22.0 21.0 0.0
 endloop
endfacet
facet normal nan nan nan
 outer loop
  vertex 22.0 21.0 1.0
  vertex 22.0 21.0 0.0
  vertex 22.0 21.0 0.0
 endloop
endfacet
facet normal 0.7071067690849304 -0.7071067690849304 0.0
 outer loop
  vertex 22.0 21.0 0.0
  vertex 23.0 22.0 0.0
  vertex 22.0 21.0 1.0
 endloop
endfacet
facet normal 0.7071067690849304 -0.7071067690849304 0.0
 outer loop
  vertex 22.0 21.0 1.0
  vertex 23.0 22.0 0.0
  vertex 23.0 22.0 1.0
 endloop
endfacet
facet normal 0.0 1.0 0.0
 outer loop
  vertex 23.0 23.0 1.0
  vertex 22.0 23.0 0.0
  vertex 22.0 23.0 1.0
 endloop
endfacet
facet normal 0.0 1.0 0.0
 outer loop
  vertex 23.0 23.0 1.0
  vertex 23.0 23.0 0.0
  vertex 22.0 23.0 0.0
 endloop
endfacet
facet normal 0.0 -1.0 0.0
 outer loop
  vertex 23.0 4.0 0.0
  vertex 24.0 4.0 1.0
  vertex 23.0 4.0 1.0
 endloop
endfacet
facet normal 0.0 -1.0 0.0
 outer loop
  vertex 24.0 4.0 0.0
  vertex 24.0 4.0 1.0
  vertex 23.0 4.0 0.0
 endloop
endfacet
facet normal -0.7071067690849304 0.7071067690849304 0.0
 outer loop
  vertex 23.0 14.0 1.0
  vertex 24.0 15.0 1.0
  vertex 23.0 14.0 0.0
 endloop
endfacet
facet normal -0.7071067690849304 0.7071067690849304 0.0
 outer loop
  vertex 23.0 14.0 0.0
  vertex 24.0 15.0 1.0
  vertex 24.0 15.0 0.0
 endloop
endfacet
facet normal nan nan nan
 outer loop
  vertex 24.0 15.0 0.0
  vertex 24.0 15.0 0.0
  vertex 24.0 15.0 1.0
 endloop
endfacet
facet normal nan nan nan
 outer loop
  vertex 24.0 15.0 0.0
  vertex 24.0 15.0 1.0
  vertex 24.0 15.0 1.0
 endloop
endfacet
facet normal nan nan nan
 outer loop
  vertex 23.0 22.0 1.0
  vertex 23.0 22.0 1.0
  vertex 23.0 22.0 0.0
 endloop
endfacet
facet normal nan nan nan
 outer loop
  vertex 23.0 22.0 1.0
  vertex 23.0 22.0 0.0
  vertex 23.0 22.0 0.0
 endloop
endfacet
facet normal 1.0 0.0 0.0
 outer loop
  vertex 23.0 22.0 0.0
  vertex 23.0 23.0 1.0
  vertex 23.0 22.0 1.0
 endloop
endfacet
facet normal 1.0 0.0 0.0
 outer loop
  vertex 23.0 22.0 0.0
  vertex 23.0 23.0 0.0
  vertex 23.0 23.0 1.0
 endloop
endfacet
facet normal nan nan nan
 outer loop
  vertex 23.0 23.0 0.0
  vertex 23.0 23.0 0.0
  vertex 23.0 23.0 1.0
 endloop
endfacet
facet normal nan nan nan
 outer loop
  vertex 23.0 23.0 0.0
  vertex 23.0 23.0 1.0
  vertex 23.0 23.0 1.0
 endloop
endfacet
facet normal 0.0 -1.0 0.0
 outer loop
  vertex 24.0 4.0 0.0
  vertex 25.0 4.0 1.0
  vertex 24.0 4.0 1.0
 endloop
endfacet
facet normal 0.0 -1.0 0.0
 outer loop
  vertex 25.0 4.0 0.0
  vertex 25.0 4.0 1.0
  vertex 24.0 4.0 0.0
 endloop
endfacet
facet normal -0.7071067690849304 0.7071067690849304 0.0
 outer loop
  vertex 24.0 15.0 1.0
  vertex 25.0 16.0 1.0
  vertex 24.0 15.0 0.0
 endloop
endfacet
facet normal -0.7071067690849304 0.7071067690849304 0.0
 outer loop
  vertex 24.0 15.0 0.0
  vertex 25.0 16.0 1.0
  vertex 25.0 16.0 0.0
 endloop
endfacet
facet normal nan nan nan
 outer loop
  vertex 25.0 16.0 0.0
  vertex 25.0 16.0 0.0
  vertex 25.0 16.0 1.0
 endloop
endfacet
facet normal nan nan nan
 outer loop
  vertex 25.0 16.0 0.0
  vertex 25.0 16.0 1.0
  vertex 25.0 16.0 1.0
 endloop
endfacet
facet normal 0.0 -1.0 0.0
 outer loop
  vertex 25.0 4.0 0.0
  vertex 26.0 4.0 1.0
  vertex 25.0 4.0 1.0
 endloop
endfacet
facet normal 0.0 -1.0 0.0
 outer loop
  vertex 26.0 4.0 0.0
  vertex 26.0 4.0 1.0
  vertex 25.0 4.0 0.0
 endloop
endfacet
facet normal -0.7071067690849304 0.7071067690849304 0.0
 outer loop
  vertex 25.0 16.0 1.0
  vertex 26.0 17.0 1.0
  vertex 25.0 16.0 0.0
 endloop
endfacet
facet normal -0.7071067690849304 0.7071067690849304 0.0
 outer loop
  vertex 25.0 16.0 0.0
  vertex 26.0 17.0 1.0
  vertex 26.0 17.0 0.0
 endloop
endfacet
facet normal nan nan nan
 outer loop
  vertex 26.0 17.0 0.0
  vertex 26.0 17.0 0.0
  vertex 26.0 17.0 1.0
 endloop
endfacet
facet normal nan nan nan
 outer loop
  vertex 26.0 17.0 0.0
  vertex 26.0 17.0 1.0
  vertex 26.0 17.0 1.0
 endloop
endfacet
facet normal 0.0 -1.0 0.0
 outer loop
  vertex 26.0 4.0 0.0
  vertex 27.0 4.0 1.0
  vertex 26.0 4.0 1.0
 endloop
endfacet
facet normal 0.0 -1.0 0.0
 outer loop
  vertex 27.0 4.0 0.0
  vertex 27.0 4.0 1.0
  vertex 26.0 4.0 0.0
 endloop
endfacet
facet normal 0.0 1.0 0.0
 outer loop
  vertex 27.0 17.0 1.0
  vertex 26.0 17.0 0.0
  vertex 26.0 17.0 1.0
 endloop
endfacet
facet normal 0.0 1.0 0.0
 outer loop
  vertex 27.0 17.0 1.0
  vertex 27.0 17.0 0.0
  vertex 26.0 17.0 0.0
 endloop
endfacet
facet normal 0.0 -1.0 0.0
 outer loop
  vertex 27.0 4.0 0.0
  vertex 28.0 4.0 1.0
  vertex 27.0 4.0 1.0
 endloop
endfacet
facet normal 0.0 -1.0 0.0
 outer loop
  vertex 28.0 4.0 0.0
  vertex 28.0 4.0 1.0
  vertex 27.0 4.0 0.0
 endloop
endfacet
facet normal -0.7071067690849304 0.7071067690849304 0.0
 outer loop
  vertex 27.0 17.0 1.0
  vertex 28.0 18.0 1.0
  vertex 27.0 17.0 0.0
 endloop
endfacet
facet normal -0.7071067690849304 0.7071067690849304 0.0
 outer loop
  vertex 27.0 17.0 0.0
  vertex 28.0 18.0 1.0
  vertex 28.0 18.0 0.0
 endloop
endfacet
facet normal nan nan nan
 outer loop
  vertex 28.0 18.0 0.0
  vertex 28.0 18.0 0.0
  vertex 28.0 18.0 1.0
 endloop
endfacet
facet normal nan nan nan
 outer loop
  vertex 28.0 18.0 0.0
  vertex 28.0 18.0 1.0
  vertex 28.0 18.0 1.0
 endloop
endfacet
facet normal 0.0 -1.0 0.0
 outer loop
  vertex 28.0 4.0 0.0
  vertex 29.0 4.0 1.0
  vertex 28.0 4.0 1.0
 endloop
endfacet
facet normal 0.0 -1.0 0.0
 outer loop
  vertex 29.0 4.0 0.0
  vertex 29.0 4.0 1.0
  vertex 28.0 4.0 0.0
 endloop
endfacet
facet normal -0.7071067690849304 0.7071067690849304 0.0
 outer loop
  vertex 28.0 18.0 1.0
  vertex 29.0 19.0 1.0
  vertex 28.0 18.0 0.0
 endloop
endfacet
facet normal -0.7071067690849304 0.7071067690849304 0.0
 outer loop
  vertex 28.0 18.0 0.0
  vertex 29.0 19.0 1.0
  vertex 29.0 19.0 0.0
 endloop
endfacet
facet normal nan nan nan
 outer loop
  vertex 29.0 19.0 0.0
  vertex 29.0 19.0 0.0
  vertex 29.0 19.0 1.0
 endloop
endfacet
facet normal nan nan nan
 outer loop
  vertex 29.0 19.0 0.0
  vertex 29.0 19.0 1.0
  vertex 29.0 19.0 1.0
 endloop
endfacet
facet normal nan nan nan
 outer loop
  vertex 29.0 4.0 1.0
  vertex 29.0 4.0 1.0
  vertex 29.0 4.0 0.0
 endloop
endfacet
facet normal nan nan nan
 outer loop
  vertex 29.0 4.0 1.0
  vertex 29.0 4.0 0.0
  vertex 29.0 4.0 0.0
 endloop
endfacet
facet normal 0.7071067690849304 -0.7071067690849304 0.0
 outer loop
  vertex 29.0 4.0 0.0
  vertex 30.0 5.0 0.0
  vertex 29.0 4.0 1.0
 endloop
endfacet
facet normal 0.7071067690849304 -0.7071067690849304 0.0
 outer loop
  vertex 29.0 4.0 1.0
  vertex 30.0 5.0 0.0
  vertex 30.0 5.0 1.0
 endloop
endfacet
facet normal -0.7071067690849304 0.7071067690849304 0.0
 outer loop
  vertex 29.0 19.0 1.0
  vertex 30.0 20.0 1.0
  vertex 29.0 19.0 0.0
 endloop
endfacet
facet normal -0.7071067690849304 0.7071067690849304 0.0
 outer loop
  vertex 29.0 19.0 0.0
  vertex 30.0 20.0 1.0
  vertex 30.0 20.0 0.0
 endloop
endfacet
facet normal nan nan nan
 outer loop
  vertex 30.0 20.0 0.0
  vertex 30.0 20.0 0.0
  vertex 30.0 20.0 1.0
 endloop
endfacet
facet normal nan nan nan
 outer loop
  vertex 30.0 20.0 0.0
  vertex 30.0 20.0 1.0
  vertex 30.0 20.0 1.0
 endloop
endfacet
facet normal 0.0 -1.0 0.0
 outer loop
  vertex 30.0 5.0 0.0
  vertex 31.0 5.0 1.0
  vertex 30.0 5.0 1.0
 endloop
endfacet
facet normal 0.0 -1.0 0.0
 outer loop
  vertex 31.0 5.0 0.0
  vertex 31.0 5.0 1.0
  vertex 30.0 5.0 0.0
 endloop
endfacet
facet normal -0.7071067690849304 0.7071067690849304 0.0
 outer loop
  vertex 30.0 20.0 1.0
  vertex 31.0 21.0 1.0
  vertex 30.0 20.0 0.0
 endloop
endfacet
facet normal -0.7071067690849304 0.7071067690849304 0.0
 outer loop
  vertex 30.0 20.0 0.0
  vertex 31.0 21.0 1.0
  vertex 31.0 21.0 0.0
 endloop
endfacet
facet normal nan nan nan
 outer loop
  vertex 31.0 21.0 0.0
  vertex 31.0 21.0 0.0
  vertex 31.0 21.0 1.0
 endloop
endfacet
facet normal nan nan nan
 outer loop
  vertex 31.0 21.0 0.0
  vertex 31.0 21.0 1.0
  vertex 31.0 21.0 1.0
 endloop
endfacet
facet normal 0.0 -1.0 0.0
 outer loop
  vertex 31.0 5.0 0.0
  vertex 32.0 5.0 1.0
  vertex 31.0 5.0 1.0
 endloop
endfacet
facet normal 0.0 -1.0 0.0
 outer loop
  vertex 32.0 5.0 0.0
  vertex 32.0 5.0 1.0
  vertex 31.0 5.0 0.0
 endloop
endfacet
facet normal -0.7071067690849304 0.7071067690849304 0.0
 outer loop
  vertex 31.0 21.0 1.0
  vertex 32.0 22.0 1.0
  vertex 31.0 21.0 0.0
 endloop
endfacet
facet normal -0.7071067690849304 0.7071067690849304 0.0
 outer loop
  vertex 31.0 21.0 0.0
  vertex 32.0 22.0 1.0
  vertex 32.0 22.0 0.0
 endloop
endfacet
facet normal nan nan nan
 outer loop
  vertex 32.0 22.0 0.0
  vertex 32.0 22.0 0.0
  vertex 32.0 22.0 1.0
 endloop
endfacet
facet normal nan nan nan
 outer loop
  vertex 32.0 22.0 0.0
  vertex 32.0 22.0 1.0
  vertex 32.0 22.0 1.0
 endloop
endfacet
facet normal 0.0 -1.0 0.0
 outer loop
  vertex 32.0 5.0 0.0
  vertex 33.0 5.0 1.0
  vertex 32.0 5.0 1.0
 endloop
endfacet
facet normal 0.0 -1.0 0.0
 outer loop
  vertex 33.0 5.0 0.0
  vertex 33.0 5.0 1.0
  vertex 32.0 5.0 0.0
 endloop
endfacet
facet normal 0.0 1.0 0.0
 outer loop
  vertex 33.0 22.0 1.0
  vertex 32.0 22.0 0.0
  vertex 32.0 22.0 1.0
 endloop
endfacet
facet normal 0.0 1.0 0.0
 outer loop
  vertex 33.0 22.0 1.0
  vertex 33.0 22.0 0.0
  vertex 32.0 22.0 0.0
 endloop
endfacet
facet normal 0.0 -1.0 0.0
 outer loop
  vertex 33.0 5.0 0.0
  vertex 34.0 5.0 1.0
  vertex 33.0 5.0 1.0
 endloop
endfacet
facet normal 0.0 -1.0 0.0
 outer loop
  vertex 34.0 5.0 0.0
  vertex 34.0 5.0 1.0
  vertex 33.0 5.0 0.0
 endloop
endfacet
facet normal 0.0 1.0 0.0
 outer loop
  vertex 34.0 22.0 1.0
  vertex 33.0 22.0 0.0
  vertex 33.0 22.0 1.0
 endloop
endfacet
facet normal 0.0 1.0 0.0
 outer loop
  vertex 34.0 22.0 1.0
  vertex 34.0 22.0 0.0
  vertex 33.0 22.0 0.0
 endloop
endfacet
facet normal 0.0 -1.0 0.0
 outer loop
  vertex 34.0 5.0 0.0
  vertex 35.0 5.0 1.0
  vertex 34.0 5.0 1.0
 endloop
endfacet
facet normal 0.0 -1.0 0.0
 outer loop
  vertex 35.0 5.0 0.0
  vertex 35.0 5.0 1.0
  vertex 34.0 5.0 0.0
 endloop
endfacet
facet normal 0.0 1.0 0.0
 outer loop
  vertex 35.0 22.0 1.0
  vertex 34.0 22.0 0.0
  vertex 34.0 22.0 1.0
 endloop
endfacet
facet normal 0.0 1.0 0.0
 outer loop
  vertex 35.0 22.0 1.0
  vertex 35.0 22.0 0.0
  vertex 34.0 22.0 0.0
 endloop
endfacet
facet normal 0.0 -1.0 0.0
 outer loop
  vertex 35.0 5.0 0.0
  vertex 36.0 5.0 1.0
  vertex 35.0 5.0 1.0
 endloop
endfacet
facet normal 0.0 -1.0 0.0
 outer loop
  vertex 36.0 5.0 0.0
  vertex 36.0 5.0 1.0
  vertex 35.0 5.0 0.0
 endloop
endfacet
facet normal 0.7071067690849304 0.7071067690849304 0.0
 outer loop
  vertex 35.0 22.0 1.0
  vertex 36.0 21.0 1.0
  vertex 35.0 22.0 0.0
 endloop
endfacet
facet normal 0.7071067690849304 0.7071067690849304 0.0
 outer loop
  vertex 35.0 22.0 0.0
  vertex 36.0 21.0 1.0
  vertex 36.0 21.0 0.0
 endloop
endfacet
facet normal nan nan nan
 outer loop
  vertex 35.0 22.0 0.0
  vertex 35.0 22.0 0.0
  vertex 35.0 22.0 1.0
 endloop
endfacet
facet normal nan nan nan
 outer loop
  vertex 35.0 22.0 0.0
  vertex 35.0 22.0 1.0
  vertex 35.0 22.0 1.0
 endloop
endfacet
facet normal 0.0 -1.0 0.0
 outer loop
  vertex 36.0 5.0 0.0
  vertex 37.0 5.0 1.0
  vertex 36.0 5.0 1.0
 endloop
endfacet
facet normal 0.0 -1.0 0.0
 outer loop
  vertex 37.0 5.0 0.0
  vertex 37.0 5.0 1.0
  vertex 36.0 5.0 0.0
 endloop
endfacet
facet normal 0.0 1.0 0.0
 outer loop
  vertex 37.0 21.0 1.0
  vertex 36.0 21.0 0.0
  vertex 36.0 21.0 1.0
 endloop
endfacet
facet normal 0.0 1.0 0.0
 outer loop
  vertex 37.0 21.0 1.0
  vertex 37.0 21.0 0.0
  vertex 36.0 21.0 0.0
 endloop
endfacet
facet normal 0.0 -1.0 0.0
 outer loop
  vertex 37.0 5.0 0.0
  vertex 38.0 5.0 1.0
  vertex 37.0 5.0 1.0
 endloop
endfacet
facet normal 0.0 -1.0 0.0
 outer loop
  vertex 38.0 5.0 0.0
  vertex 38.0 5.0 1.0
  vertex 37.0 5.0 0.0
 endloop
endfacet
facet normal 0.7071067690849304 0.7071067690849304 0.0
 outer loop
  vertex 37.0 21.0 1.0
  vertex 38.0 20.0 1.0
  vertex 37.0 21.0 0.0
 endloop
endfacet
facet normal 0.7071067690849304 0.7071067690849304 0.0
 outer loop
  vertex 37.0 21.0 0.0
  vertex 38.0 20.0 1.0
  vertex 38.0 20.0 0.0
 endloop
endfacet
facet normal nan nan nan
 outer loop
  vertex 37.0 21.0 0.0
  vertex 37.0 21.0 0.0
  vertex 37.0 21.0 1.0
 endloop
endfacet
facet normal nan nan nan
 outer loop
  vertex 37.0 21.0 0.0
  vertex 37.0 21.0 1.0
  vertex 37.0 21.0 1.0
 endloop
endfacet
facet normal 0.0 -1.0 0.0
 outer loop
  vertex 38.0 5.0 0.0
  vertex 39.0 5.0 1.0
  vertex 38.0 5.0 1.0
 endloop
endfacet
facet normal 0.0 -1.0 0.0
 outer loop
  vertex 39.0 5.0 0.0
  vertex 39.0 5.0 1.0
  vertex 38.0 5.0 0.0
 endloop
endfacet
facet normal 0.7071067690849304 0.7071067690849304 0.0
 outer loop
  vertex 38.0 20.0 1.0
  vertex 39.0 19.0 1.0
  vertex 38.0 20.0 0.0
 endloop
endfacet
facet normal 0.7071067690849304 0.7071067690849304 0.0
 outer loop
  vertex 38.0 20.0 0.0
  vertex 39.0 19.0 1.0
  vertex 39.0 19.0 0.0
 endloop
endfacet
facet normal nan nan nan
 outer loop
  vertex 38.0 20.0 0.0
  vertex 38.0 20.0 0.0
  vertex 38.0 20.0 1.0
 endloop
endfacet
facet normal nan nan nan
 outer loop
  vertex 38.0 20.0 0.0
  vertex 38.0 20.0 1.0
  vertex 38.0 20.0 1.0
 endloop
endfacet
facet normal 0.0 -1.0 0.0
 outer loop
  vertex 39.0 5.0 0.0
  vertex 40.0 5.0 1.0
  vertex 39.0 5.0 1.0
 endloop
endfacet
facet normal 0.0 -1.0 0.0
 outer loop
  vertex 40.0 5.0 0.0
  vertex 40.0 5.0 1.0
  vertex 39.0 5.0 0.0
 endloop
endfacet
facet normal 0.7071067690849304 0.7071067690849304 0.0
 outer loop
  vertex 39.0 19.0 1.0
  vertex 40.0 18.0 1.0
  vertex 39.0 19.0 0.0
 endloop
endfacet
facet normal 0.7071067690849304 0.7071067690849304 0.0
 outer loop
  vertex 39.0 19.0 0.0
  vertex 40.0 18.0 1.0
  vertex 40.0 18.0 0.0
 endloop
endfacet
facet normal nan nan nan
 outer loop
  vertex 39.0 19.0 0.0
  vertex 39.0 19.0 0.0
  vertex 39.0 19.0 1.0
 endloop
endfacet
facet normal nan nan nan
 outer loop
  vertex 39.0 19.0 0.0
  vertex 39.0 19.0 1.0
  vertex 39.0 19.0 1.0
 endloop
endfacet
facet normal 0.0 -1.0 0.0
 outer loop
  vertex 40.0 5.0 0.0
  vertex 41.0 5.0 1.0
  vertex 40.0 5.0 1.0
 endloop
endfacet
facet normal 0.0 -1.0 0.0
 outer loop
  vertex 41.0 5.0 0.0
  vertex 41.0 5.0 1.0
  vertex 40.0 5.0 0.0
 endloop
endfacet
facet normal 0.7071067690849304 0.7071067690849304 0.0
 outer loop
  vertex 40.0 18.0 1.0
  vertex 41.0 17.0 1.0
  vertex 40.0 18.0 0.0
 endloop
endfacet
facet normal 0.7071067690849304 0.7071067690849304 0.0
 outer loop
  vertex 40.0 18.0 0.0
  vertex 41.0 17.0 1.0
  vertex 41.0 17.0 0.0
 endloop
endfacet
facet normal nan nan nan
 outer loop
  vertex 40.0 18.0 0.0
  vertex 40.0 18.0 0.0
  vertex 40.0 18.0 1.0
 endloop
endfacet
facet normal nan nan nan
 outer loop
  vertex 40.0 18.0 0.0
  vertex 40.0 18.0 1.0
  vertex 40.0 18.0 1.0
 endloop
endfacet
facet normal 0.0 -1.0 0.0
 outer loop
  vertex 41.0 5.0 0.0
  vertex 42.0 5.0 1.0
  vertex 41.0 5.0 1.0
 endloop
endfacet
facet normal 0.0 -1.0 0.0
 outer loop
  vertex 42.0 5.0 0.0
  vertex 42.0 5.0 1.0
  vertex 41.0 5.0 0.0
 endloop
endfacet
facet normal 0.7071067690849304 0.7071067690849304 0.0
 outer loop
  vertex 41.0 17.0 1.0
  vertex 42.0 16.0 1.0
  vertex 41.0 17.0 0.0
 endloop
endfacet
facet normal 0.7071067690849304 0.7071067690849304 0.0
 outer loop
  vertex 41.0 17.0 0.0
  vertex 42.0 16.0 1.0
  vertex 42.0 16.0 0.0
 endloop
endfacet
facet normal nan nan nan
 outer loop
  vertex 41.0 17.0 0.0
  vertex 41.0 17.0 0.0
  vertex 41.0 17.0 1.0
 endloop
endfacet
facet normal nan nan nan
 outer loop
  vertex 41.0 17.0 0.0
  vertex 41.0 17.0 1.0
  vertex 41.0 17.0 1.0
 endloop
endfacet
facet normal nan nan nan
 outer loop
  vertex 42.0 24.0 1.0
  vertex 42.0 24.0 1.0
  vertex 42.0 24.0 0.0
 endloop
endfacet
facet normal nan nan nan
 outer loop
  vertex 42.0 24.0 1.0
  vertex 42.0 24.0 0.0
  vertex 42.0 24.0 0.0
 endloop
endfacet
facet normal -1.0 -0.0 0.0
 outer loop
  vertex 42.0 25.0 1.0
  vertex 42.0 24.0 0.0
  vertex 42.0 24.0 1.0
 endloop
endfacet
facet normal -1.0 0.0 0.0
 outer loop
  vertex 42.0 25.0 0.0
  vertex 42.0 24.0 0.0
  vertex 42.0 25.0 1.0
 endloop
endfacet
facet normal nan nan nan
 outer loop
  vertex 42.0 25.0 0.0
  vertex 42.0 25.0 0.0
  vertex 42.0 25.0 1.0
 endloop
endfacet
facet normal nan nan nan
 outer loop
  vertex 42.0 25.0 0.0
  vertex 42.0 25.0 1.0
  vertex 42.0 25.0 1.0
 endloop
endfacet
facet normal 0.0 -1.0 0.0
 outer loop
  vertex 42.0 5.0 0.0
  vertex 43.0 5.0 1.0
  vertex 42.0 5.0 1.0
 endloop
endfacet
facet normal 0.0 -1.0 0.0
 outer loop
  vertex 43.0 5.0 0.0
  vertex 43.0 5.0 1.0
  vertex 42.0 5.0 0.0
 endloop
endfacet
facet normal 0.7071067690849304 0.7071067690849304 0.0
 outer loop
  vertex 42.0 16.0 1.0
  vertex 43.0 15.0 1.0
  vertex 42.0 16.0 0.0
 endloop
endfacet
facet normal 0.7071067690849304 0.7071067690849304 0.0
 outer loop
  vertex 42.0 16.0 0.0
  vertex 43.0 15.0 1.0
  vertex 43.0 15.0 0.0
 endloop
endfacet
facet normal nan nan nan
 outer loop
  vertex 42.0 16.0 0.0
  vertex 42.0 16.0 0.0
  vertex 42.0 16.0 1.0
 endloop
endfacet
facet normal nan nan nan
 outer loop
  vertex 42.0 16.0 0.0
  vertex 42.0 16.0 1.0
  vertex 42.0 16.0 1.0
 endloop
endfacet
facet normal nan nan nan
 outer loop
  vertex 43.0 22.0 1.0
  vertex 43.0 22.0 1.0
  vertex 43.0 22.0 0.0
 endloop
endfacet
facet normal nan nan nan
 outer loop
  vertex 43.0 22.0 1.0
  vertex 43.0 22.0 0.0
  vertex 43.0 22.0 0.0
 endloop
endfacet
facet normal -1.0 -0.0 0.0
 outer loop
  vertex 43.0 23.0 1.0
  vertex 43.0 22.0 0.0
  vertex 43.0 22.0 1.0
 endloop
endfacet
facet normal -1.0 0.0 0.0
 outer loop
  vertex 43.0 23.0 0.0
  vertex 43.0 22.0 0.0
  vertex 43.0 23.0 1.0
 endloop
endfacet
facet normal -0.7071067690849304 -0.7071067690849304 0.0
 outer loop
  vertex 42.0 24.0 0.0
  vertex 43.0 23.0 0.0
  vertex 42.0 24.0 1.0
 endloop
endfacet
facet normal -0.7071067690849304 -0.7071067690849304 0.0
 outer loop
  vertex 42.0 24.0 1.0
  vertex 43.0 23.0 0.0
  vertex 43.0 23.0 1.0
 endloop
endfacet
facet normal -0.7071067690849304 0.7071067690849304 0.0
 outer loop
  vertex 42.0 25.0 1.0
  vertex 43.0 26.0 1.0
  vertex 42.0 25.0 0.0
 endloop
endfacet
facet normal -0.7071067690849304 0.7071067690849304 0.0
 outer loop
  vertex 42.0 25.0 0.0
  vertex 43.0 26.0 1.0
  vertex 43.0 26.0 0.0
 endloop
endfacet
facet normal nan nan nan
 outer loop
  vertex 43.0 26.0 0.0
  vertex 43.0 26.0 0.0
  vertex 43.0 26.0 1.0
 endloop
endfacet
facet normal nan nan nan
 outer loop
  vertex 43.0 26.0 0.0
  vertex 43.0 26.0 1.0
  vertex 43.0 26.0 1.0
 endloop
endfacet
facet normal 0.0 -1.0 0.0
 outer loop
  vertex 43.0 5.0 0.0
  vertex 44.0 5.0 1.0
  vertex 43.0 5.0 1.0
 endloop
endfacet
facet normal 0.0 -1.0 0.0
 outer loop
  vertex 44.0 5.0 0.0
  vertex 44.0 5.0 1.0
  vertex 43.0 5.0 0.0
 endloop
endfacet
facet normal 0.7071067690849304 0.7071067690849304 0.0
 outer loop
  vertex 43.0 15.0 1.0
  vertex 44.0 14.0 1.0
  vertex 43.0 15.0 0.0
 endloop
endfacet
facet normal 0.7071067690849304 0.7071067690849304 0.0
 outer loop
  vertex 43.0 15.0 0.0
  vertex 44.0 14.0 1.0
  vertex 44.0 14.0 0.0
 endloop
endfacet
facet normal nan nan nan
 outer loop
  vertex 43.0 15.0 0.0
  vertex 43.0 15.0 0.0
  vertex 43.0 15.0 1.0
 endloop
endfacet
facet normal nan nan nan
 outer loop
  vertex 43.0 15.0 0.0
  vertex 43.0 15.0 1.0
  vertex 43.0 15.0 1.0
 endloop
endfacet
facet normal nan nan nan
 outer loop
  vertex 44.0 21.0 1.0
  vertex 44.0 21.0 1.0
  vertex 44.0 21.0 0.0
 endloop
endfacet
facet normal nan nan nan
 outer loop
  vertex 44.0 21.0 1.0
  vertex 44.0 21.0 0.0
  vertex 44.0 21.0 0.0
 endloop
endfacet
facet normal -0.7071067690849304 -0.7071067690849304 0.0
 outer loop
  vertex 43.0 22.0 0.0
  vertex 44.0 21.0 0.0
  vertex 43.0 22.0 1.0
 endloop
endfacet
facet normal -0.7071067690849304 -0.7071067690849304 0.0
 outer loop
  vertex 43.0 22.0 1.0
  vertex 44.0 21.0 0.0
  vertex 44.0 21.0 1.0
 endloop
endfacet
facet normal 0.0 1.0 0.0
 outer loop
  vertex 44.0 26.0 1.0
  vertex 43.0 26.0 0.0
  vertex 43.0 26.0 1.0
 endloop
endfacet
facet normal 0.0 1.0 0.0
 outer loop
  vertex 44.0 26.0 1.0
  vertex 44.0 26.0 0.0
  vertex 43.0 26.0 0.0
 endloop
endfacet
facet normal 0.0 -1.0 0.0
 outer loop
  vertex 44.0 5.0 0.0
  vertex 45.0 5.0 1.0
  vertex 44.0 5.0 1.0
 endloop
endfacet
facet normal 0.0 -1.0 0.0
 outer loop
  vertex 45.0 5.0 0.0
  vertex 45.0 5.0 1.0
  vertex 44.0 5.0 0.0
 endloop
endfacet
facet normal 0.7071067690849304 0.7071067690849304 0.0
 outer loop
  vertex 44.0 14.0 1.0
  vertex 45.0 13.0 1.0
  vertex 44.0 14.0 0.0
 endloop
endfacet
facet normal 0.7071067690849304 0.7071067690849304 0.0
 outer loop
  vertex 44.0 14.0 0.0
  vertex 45.0 13.0 1.0
  vertex 45.0 13.0 0.0
 endloop
endfacet
facet normal nan nan nan
 outer loop
  vertex 44.0 14.0 0.0
  vertex 44.0 14.0 0.0
  vertex 44.0 14.0 1.0
 endloop
endfacet
facet normal nan nan nan
 outer loop
  vertex 44.0 14.0 0.0
  vertex 44.0 14.0 1.0
  vertex 44.0 14.0 1.0
 endloop
endfacet
facet normal 0.0 -1.0 0.0
 outer loop
  vertex 44.0 21.0 0.0
  vertex 45.0 21.0 1.0
  vertex 44.0 21.0 1.0
 endloop
endfacet
facet normal 0.0 -1.0 0.0
 outer loop
  vertex 45.0 21.0 0.0
  vertex 45.0 21.0 1.0
  vertex 44.0 21.0 0.0
 endloop
endfacet
facet normal 0.0 1.0 0.0
 outer loop
  vertex 45.0 26.0 1.0
  vertex 44.0 26.0 0.0
  vertex 44.0 26.0 1.0
 endloop
endfacet
facet normal 0.0 1.0 0.0
 outer loop
  vertex 45.0 26.0 1.0
  vertex 45.0 26.0 0.0
  vertex 44.0 26.0 0.0
 endloop
endfacet
facet normal 0.0 -1.0 0.0
 outer loop
  vertex 45.0 5.0 0.0
  vertex 46.0 5.0 1.0
  vertex 45.0 5.0 1.0
 endloop
endfacet
facet normal 0.0 -1.0 0.0
 outer loop
  vertex 46.0 5.0 0.0
  vertex 46.0 5.0 1.0
  vertex 45.0 5.0 0.0
 endloop
endfacet
facet normal 0.7071067690849304 0.7071067690849304 0.0
 outer loop
  vertex 45.0 13.0 1.0
  vertex 46.0 12.0 1.0
  vertex 45.0 13.0 0.0
 endloop
endfacet
facet normal 0.7071067690849304 0.7071067690849304 0.0
 outer loop
  vertex 45.0 13.0 0.0
  vertex 46.0 12.0 1.0
  vertex 46.0 12.0 0.0
 endloop
endfacet
facet normal nan nan nan
 outer loop
  vertex 45.0 13.0 0.0
  vertex 45.0 13.0 0.0
  vertex 45.0 13.0 1.0
 endloop
endfacet
facet normal nan nan nan
 outer loop
  vertex 45.0 13.0 0.0
  vertex 45.0 13.0 1.0
  vertex 45.0 13.0 1.0
 endloop
endfacet
facet normal nan nan nan
 outer loop
  vertex 46.0 20.0 1.0
  vertex 46.0 20.0 1.0
  vertex 46.0 20.0 0.0
 endloop
endfacet
facet normal nan nan nan
 outer loop
  vertex 46.0 20.0 1.0
  vertex 46.0 20.0 0.0
  vertex 46.0 20.0 0.0
 endloop
endfacet
facet normal -0.7071067690849304 -0.7071067690849304 0.0
 outer loop
  vertex 45.0 21.0 0.0
  vertex 46.0 20.0 0.0
  vertex 45.0 21.0 1.0
 endloop
endfacet
facet normal -0.7071067690849304 -0.7071067690849304 0.0
 outer loop
  vertex 45.0 21.0 1.0
  vertex 46.0 20.0 0.0
  vertex 46.0 20.0 1.0
 endloop
endfacet
facet normal 0.0 1.0 0.0
 outer loop
  vertex 46.0 26.0 1.0
  vertex 45.0 26.0 0.0
  vertex 45.0 26.0 1.0
 endloop
endfacet
facet normal 0.0 1.0 0.0
 outer loop
  vertex 46.0 26.0 1.0
  vertex 46.0 26.0 0.0
  vertex 45.0 26.0 0.0
 endloop
endfacet
facet normal 0.0 -1.0 0.0
 outer loop
  vertex 46.0 5.0 0.0
  vertex 47.0 5.0 1.0
  vertex 46.0 5.0 1.0
 endloop
endfacet
facet normal 0.0 -1.0 0.0
 outer loop
  vertex 47.0 5.0 0.0
  vertex 47.0 5.0 1.0
  vertex 46.0 5.0 0.0
 endloop
endfacet
facet normal 0.7071067690849304 0.7071067690849304 0.0
 outer loop
  vertex 46.0 12.0 1.0
  vertex 47.0 11.0 1.0
  vertex 46.0 12.0 0.0
 endloop
endfacet
facet normal 0.7071067690849304 0.7071067690849304 0.0
 outer loop
  vertex 46.0 12.0 0.0
  vertex 47.0 11.0 1.0
  vertex 47.0 11.0 0.0
 endloop
endfacet
facet normal nan nan nan
 outer loop
  vertex 46.0 12.0 0.0
  vertex 46.0 12.0 0.0
  vertex 46.0 12.0 1.0
 endloop
endfacet
facet normal nan nan nan
 outer loop
  vertex 46.0 12.0 0.0
  vertex 46.0 12.0 1.0
  vertex 46.0 12.0 1.0
 endloop
endfacet
facet normal nan nan nan
 outer loop
  vertex 47.0 19.0 1.0
  vertex 47.0 19.0 1.0
  vertex 47.0 19.0 0.0
 endloop
endfacet
facet normal nan nan nan
 outer loop
  vertex 47.0 19.0 1.0
  vertex 47.0 19.0 0.0
  vertex 47.0 19.0 0.0
 endloop
endfacet
facet normal -0.7071067690849304 -0.7071067690849304 0.0
 outer loop
  vertex 46.0 20.0 0.0
  vertex 47.0 19.0 0.0
  vertex 46.0 20.0 1.0
 endloop
endfacet
facet normal -0.7071067690849304 -0.7071067690849304 0.0
 outer loop
  vertex 46.0 20.0 1.0
  vertex 47.0 19.0 0.0
  vertex 47.0 19.0 1.0
 endloop
endfacet
facet normal 0.0 1.0 0.0
 outer loop
  vertex 47.0 26.0 1.0
  vertex 46.0 26.0 0.0
  vertex 46.0 26.0 1.0
 endloop
endfacet
facet normal 0.0 1.0 0.0
 outer loop
  vertex 47.0 26.0 1.0
  vertex 47.0 26.0 0.0
  vertex 46.0 26.0 0.0
 endloop
endfacet
facet normal 0.0 -1.0 0.0
 outer loop
  vertex 47.0 5.0 0.0
  vertex 48.0 5.0 1.0
  vertex 47.0 5.0 1.0
 endloop
endfacet
facet normal 0.0 -1.0 0.0
 outer loop
  vertex 48.0 5.0 0.0
  vertex 48.0 5.0 1.0
  vertex 47.0 5.0 0.0
 endloop
endfacet
facet normal 0.7071067690849304 0.7071067690849304 0.0
 outer loop
  vertex 47.0 11.0 1.0
  vertex 48.0 10.0 1.0
  vertex 47.0 11.0 0.0
 endloop
endfacet
facet normal 0.7071067690849304 0.7071067690849304 0.0
 outer loop
  vertex 47.0 11.0 0.0
  vertex 48.0 10.0 1.0
  vertex 48.0 10.0 0.0
 endloop
endfacet
facet normal nan nan nan
 outer loop
  vertex 47.0 11.0 0.0
  vertex 47.0 11.0 0.0
  vertex 47.0 11.0 1.0
 endloop
endfacet
facet normal nan nan nan
 outer loop
  vertex 47.0 11.0 0.0
  vertex 47.0 11.0 1.0
  vertex 47.0 11.0 1.0
 endloop
endfacet
facet normal nan nan nan
 outer loop
  vertex 48.0 18.0 1.0
  vertex 48.0 18.0 1.0
  vertex 48.0 18.0 0.0
 endloop
endfacet
facet normal nan nan nan
 outer loop
  vertex 48.0 18.0 1.0
  vertex 48.0 18.0 0.0
  vertex 48.0 18.0 0.0
 endloop
endfacet
facet normal -0.7071067690849304 -0.7071067690849304 0.0
 outer loop
  vertex 47.0 19.0 0.0
  vertex 48.0 18.0 0.0
  vertex 47.0 19.0 1.0
 endloop
endfacet
facet normal -0.7071067690849304 -0.7071067690849304 0.0
 outer loop
  vertex 47.0 19.0 1.0
  vertex 48.0 18.0 0.0
  vertex 48.0 18.0 1.0
 endloop
endfacet
facet normal 0.0 1.0 0.0
 outer loop
  vertex 48.0 26.0 1.0
  vertex 47.0 26.0 0.0
  vertex 47.0 26.0 1.0
 endloop
endfacet
facet normal 0.0 1.0 0.0
 outer loop
  vertex 48.0 26.0 1.0
  vertex 48.0 26.0 0.0
  vertex 47.0 26.0 0.0
 endloop
endfacet
facet normal 0.0 -1.0 0.0
 outer loop
  vertex 48.0 5.0 0.0
  vertex 49.0 5.0 1.0
  vertex 48.0 5.0 1.0
 endloop
endfacet
facet normal 0.0 -1.0 0.0
 outer loop
  vertex 49.0 5.0 0.0
  vertex 49.0 5.0 1.0
  vertex 48.0 5.0 0.0
 endloop
endfacet
facet normal 0.0 1.0 0.0
 outer loop
  vertex 49.0 10.0 1.0
  vertex 48.0 10.0 0.0
  vertex 48.0 10.0 1.0
 endloop
endfacet
facet normal 0.0 1.0 0.0
 outer loop
  vertex 49.0 10.0 1.0
  vertex 49.0 10.0 0.0
  vertex 48.0 10.0 0.0
 endloop
endfacet
facet normal nan nan nan
 outer loop
  vertex 49.0 17.0 1.0
  vertex 49.0 17.0 1.0
  vertex 49.0 17.0 0.0
 endloop
endfacet
facet normal nan nan nan
 outer loop
  vertex 49.0 17.0 1.0
  vertex 49.0 17.0 0.0
  vertex 49.0 17.0 0.0
 endloop
endfacet
facet normal -0.7071067690849304 -0.7071067690849304 0.0
 outer loop
  vertex 48.0 18.0 0.0
  vertex 49.0 17.0 0.0
  vertex 48.0 18.0 1.0
 endloop
endfacet
facet normal -0.7071067690849304 -0.7071067690849304 0.0
 outer loop
  vertex 48.0 18.0 1.0
  vertex 49.0 17.0 0.0
  vertex 49.0 17.0 1.0
 endloop
endfacet
facet normal 0.0 1.0 0.0
 outer loop
  vertex 49.0 26.0 1.0
  vertex 48.0 26.0 0.0
  vertex 48.0 26.0 1.0
 endloop
endfacet
facet normal 0.0 1.0 0.0
 outer loop
  vertex 49.0 26.0 1.0
  vertex 49.0 26.0 0.0
  vertex 48.0 26.0 0.0
 endloop
endfacet
facet normal 0.0 -1.0 0.0
 outer loop
  vertex 49.0 5.0 0.0
  vertex 50.0 5.0 1.0
  vertex 49.0 5.0 1.0
 endloop
endfacet
facet normal 0.0 -1.0 0.0
 outer loop
  vertex 50.0 5.0 0.0
  vertex 50.0 5.0 1.0
  vertex 49.0 5.0 0.0
 endloop
endfacet
facet normal 0.7071067690849304 0.7071067690849304 0.0
 outer loop
  vertex 49.0 10.0 1.0
  vertex 50.0 9.0 1.0
  vertex 49.0 10.0 0.0
 endloop
endfacet
facet normal 0.7071067690849304 0.7071067690849304 0.0
 outer loop
  vertex 49.0 10.0 0.0
  vertex 50.0 9.0 1.0
  vertex 50.0 9.0 0.0
 endloop
endfacet
facet normal nan nan nan
 outer loop
  vertex 49.0 10.0 0.0
  vertex 49.0 10.0 0.0
  vertex 49.0 10.0 1.0
 endloop
endfacet
facet normal nan nan nan
 outer loop
  vertex 49.0 10.0 0.0
  vertex 49.0 10.0 1.0
  vertex 49.0 10.0 1.0
 endloop
endfacet
facet normal nan nan nan
 outer loop
  vertex 50.0 16.0 1.0
  vertex 50.0 16.0 1.0
  vertex 50.0 16.0 0.0
 endloop
endfacet
facet normal nan nan nan
 outer loop
  vertex 50.0 16.0 1.0
  vertex 50.0 16.0 0.0
  vertex 50.0 16.0 0.0
 endloop
endfacet
facet normal -0.7071067690849304 -0.7071067690849304 0.0
 outer loop
  vertex 49.0 17.0 0.0
  vertex 50.0 16.0 0.0
  vertex 49.0 17.0 1.0
 endloop
endfacet
facet normal -0.7071067690849304 -0.7071067690849304 0.0
 outer loop
  vertex 49.0 17.0 1.0
  vertex 50.0 16.0 0.0
  vertex 50.0 16.0 1.0
 endloop
endfacet
facet normal 0.0 1.0 0.0
 outer loop
  vertex 50.0 26.0 1.0
  vertex 49.0 26.0 0.0
  vertex 49.0 26.0 1.0
 endloop
endfacet
facet normal 0.0 1.0 0.0
 outer loop
  vertex 50.0 26.0 1.0
  vertex 50.0 26.0 0.0
  vertex 49.0 26.0 0.0
 endloop
endfacet
facet normal 0.0 -1.0 0.0
 outer loop
  vertex 50.0 5.0 0.0
  vertex 51.0 5.0 1.0
  vertex 50.0 5.0 1.0
 endloop
endfacet
facet normal 0.0 -1.0 0.0
 outer loop
  vertex 51.0 5.0 0.0
  vertex 51.0 5.0 1.0
  vertex 50.0 5.0 0.0
 endloop
endfacet
facet normal 0.7071067690849304 0.7071067690849304 0.0
 outer loop
  vertex 50.0 9.0 1.0
  vertex 51.0 8.0 1.0
  vertex 50.0 9.0 0.0
 endloop
endfacet
facet normal 0.7071067690849304 0.7071067690849304 0.0
 outer loop
  vertex 50.0 9.0 0.0
  vertex 51.0 8.0 1.0
  vertex 51.0 8.0 0.0
 endloop
endfacet
facet normal nan nan nan
 outer loop
  vertex 50.0 9.0 0.0
  vertex 50.0 9.0 0.0
  vertex 50.0 9.0 1.0
 endloop
endfacet
facet normal nan nan nan
 outer loop
  vertex 50.0 9.0 0.0
  vertex 50.0 9.0 1.0
  vertex 50.0 9.0 1.0
 endloop
endfacet
facet normal nan nan nan
 outer loop
  vertex 51.0 15.0 1.0
  vertex 51.0 15.0 1.0
  vertex 51.0 15.0 0.0
 endloop
endfacet
facet normal nan nan nan
 outer loop
  vertex 51.0 15.0 1.0
  vertex 51.0 15.0 0.0
  vertex 51.0 15.0 0.0
 endloop
endfacet
facet normal -0.7071067690849304 -0.7071067690849304 0.0
 outer loop
  vertex 50.0 16.0 0.0
  vertex 51.0 15.0 0.0
  vertex 50.0 16.0 1.0
 endloop
endfacet
facet normal -0.7071067690849304 -0.7071067690849304 0.0
 outer loop
  vertex 50.0 16.0 1.0
  vertex 51.0 15.0 0.0
  vertex 51.0 15.0 1.0
 endloop
endfacet
facet normal 0.0 1.0 0.0
 outer loop
  vertex 51.0 26.0 1.0
  vertex 50.0 26.0 0.0
  vertex 50.0 26.0 1.0
 endloop
endfacet
facet normal 0.0 1.0 0.0
 outer loop
  vertex 51.0 26.0 1.0
  vertex 51.0 26.0 0.0
  vertex 50.0 26.0 0.0
 endloop
endfacet
facet normal 0.0 -1.0 0.0
 outer loop
  vertex 51.0 5.0 0.0
  vertex 52.0 5.0 1.0
  vertex 51.0 5.0 1.0
 endloop
endfacet
facet normal 0.0 -1.0 0.0
 outer loop
  vertex 52.0 5.0 0.0
  vertex 52.0 5.0 1.0
  vertex 51.0 5.0 0.0
 endloop
endfacet
facet normal 0.7071067690849304 0.7071067690849304 0.0
 outer loop
  vertex 51.0 8.0 1.0
  vertex 52.0 7.0 1.0
  vertex 51.0 8.0 0.0
 endloop
endfacet
facet normal 0.7071067690849304 0.7071067690849304 0.0
 outer loop
  vertex 51.0 8.0 0.0
  vertex 52.0 7.0 1.0
  vertex 52.0 7.0 0.0
 endloop
endfacet
facet normal nan nan nan
 outer loop
  vertex 51.0 8.0 0.0
  vertex 51.0 8.0 0.0
  vertex 51.0 8.0 1.0
 endloop
endfacet
facet normal nan nan nan
 outer loop
  vertex 51.0 8.0 0.0
  vertex 51.0 8.0 1.0
  vertex 51.0 8.0 1.0
 endloop
endfacet
facet normal nan nan nan
 outer loop
  vertex 52.0 14.0 1.0
  vertex 52.0 14.0 1.0
  vertex 52.0 14.0 0.0
 endloop
endfacet
facet normal nan nan nan
 outer loop
  vertex 52.0 14.0 1.0
  vertex 52.0 14.0 0.0
  vertex 52.0 14.0 0.0
 endloop
endfacet
facet normal -0.7071067690849304 -0.7071067690849304 0.0
 outer loop
  vertex 51.0 15.0 0.0
  vertex 52.0 14.0 0.0
  vertex 51.0 15.0 1.0
 endloop
endfacet
facet normal -0.7071067690849304 -0.7071067690849304 0.0
 outer loop
  vertex 51.0 15.0 1.0
  vertex 52.0 14.0 0.0
  vertex 52.0 14.0 1.0
 endloop
endfacet
facet normal 0.0 1.0 0.0
 outer loop
  vertex 52.0 26.0 1.0
  vertex 51.0 26.0 0.0
  vertex 51.0 26.0 1.0
 endloop
endfacet
facet normal 0.0 1.0 0.0
 outer loop
  vertex 52.0 26.0 1.0
  vertex 52.0 26.0 0.0
  vertex 51.0 26.0 0.0
 endloop
endfacet
facet normal nan nan nan
 outer loop
  vertex 52.0 5.0 1.0
  vertex 52.0 5.0 1.0
  vertex 52.0 5.0 0.0
 endloop
endfacet
facet normal nan nan nan
 outer loop
  vertex 52.0 5.0 1.0
  vertex 52.0 5.0 0.0
  vertex 52.0 5.0 0.0
 endloop
endfacet
facet normal 1.0 0.0 0.0
 outer loop
  vertex 52.0 5.0 0.0
  vertex 52.0 6.0 1.0
  vertex 52.0 5.0 1.0
 endloop
endfacet
facet normal 1.0 0.0 0.0
 outer loop
  vertex 52.0 5.0 0.0
  vertex 52.0 6.0 0.0
  vertex 52.0 6.0 1.0
 endloop
endfacet
facet normal 1.0 0.0 0.0
 outer loop
  vertex 52.0 6.0 0.0
  vertex 52.0 7.0 1.0
  vertex 52.0 6.0 1.0
 endloop
endfacet
facet normal 1.0 0.0 0.0
 outer loop
  vertex 52.0 6.0 0.0
  vertex 52.0 7.0 0.0
  vertex 52.0 7.0 1.0
 endloop
endfacet
facet normal nan nan nan
 outer loop
  vertex 52.0 7.0 0.0
  vertex 52.0 7.0 0.0
  vertex 52.0 7.0 1.0
 endloop
endfacet
facet normal nan nan nan
 outer loop
  vertex 52.0 7.0 0.0
  vertex 52.0 7.0 1.0
  vertex 52.0 7.0 1.0
 endloop
endfacet
facet normal nan nan nan
 outer loop
  vertex 53.0 13.0 1.0
  vertex 53.0 13.0 1.0
  vertex 53.0 13.0 0.0
 endloop
endfacet
facet normal nan nan nan
 outer loop
  vertex 53.0 13.0 1.0
  vertex 53.0 13.0 0.0
  vertex 53.0 13.0 0.0
 endloop
endfacet
facet normal -0.7071067690849304 -0.7071067690849304 0.0
 outer loop
  vertex 52.0 14.0 0.0
  vertex 53.0 13.0 0.0
  vertex 52.0 14.0 1.0
 endloop
endfacet
facet normal -0.7071067690849304 -0.7071067690849304 0.0
 outer loop
  vertex 52.0 14.0 1.0
  vertex 53.0 13.0 0.0
  vertex 53.0 13.0 1.0
 endloop
endfacet
facet normal 0.0 1.0 0.0
 outer loop
  vertex 53.0 26.0 1.0
  vertex 52.0 26.0 0.0
  vertex 52.0 26.0 1.0
 endloop
endfacet
facet normal 0.0 1.0 0.0
 outer loop
  vertex 53.0 26.0 1.0
  vertex 53.0 26.0 0.0
  vertex 52.0 26.0 0.0
 endloop
endfacet
facet normal 0.0 -1.0 0.0
 outer loop
  vertex 53.0 13.0 0.0
  vertex 54.0 13.0 1.0
  vertex 53.0 13.0 1.0
 endloop
endfacet
facet normal 0.0 -1.0 0.0
 outer loop
  vertex 54.0 13.0 0.0
  vertex 54.0 13.0 1.0
  vertex 53.0 13.0 0.0
 endloop
endfacet
facet normal 0.0 1.0 0.0
 outer loop
  vertex 54.0 26.0 1.0
  vertex 53.0 26.0 0.0
  vertex 53.0 26.0 1.0
 endloop
endfacet
facet normal 0.0 1.0 0.0
 outer loop
  vertex 54.0 26.0 1.0
  vertex 54.0 26.0 0.0
  vertex 53.0 26.0 0.0
 endloop
endfacet
facet normal nan nan nan
 outer loop
  vertex 55.0 12.0 1.0
  vertex 55.0 12.0 1.0
  vertex 55.0 12.0 0.0
 endloop
endfacet
facet normal nan nan nan
 outer loop
  vertex 55.0 12.0 1.0
  vertex 55.0 12.0 0.0
  vertex 55.0 12.0 0.0
 endloop
endfacet
facet normal -0.7071067690849304 -0.7071067690849304 0.0
 outer loop
  vertex 54.0 13.0 0.0
  vertex 55.0 12.0 0.0
  vertex 54.0 13.0 1.0
 endloop
endfacet
facet normal -0.7071067690849304 -0.7071067690849304 0.0
 outer loop
  vertex 54.0 13.0 1.0
  vertex 55.0 12.0 0.0
  vertex 55.0 12.0 1.0
 endloop
endfacet
facet normal 0.0 1.0 0.0
 outer loop
  vertex 55.0 26.0 1.0
  vertex 54.0 26.0 0.0
  vertex 54.0 26.0 1.0
 endloop
endfacet
facet normal 0.0 1.0 0.0
 outer loop
  vertex 55.0 26.0 1.0
  vertex 55.0 26.0 0.0
  vertex 54.0 26.0 0.0
 endloop
endfacet
facet normal nan nan nan
 outer loop
  vertex 56.0 11.0 1.0
  vertex 56.0 11.0 1.0
  vertex 56.0 11.0 0.0
 endloop
endfacet
facet normal nan nan nan
 outer loop
  vertex 56.0 11.0 1.0
  vertex 56.0 11.0 0.0
  vertex 56.0 11.0 0.0
 endloop
endfacet
facet normal -0.7071067690849304 -0.7071067690849304 0.0
 outer loop
  vertex 55.0 12.0 0.0
  vertex 56.0 11.0 0.0
  vertex 55.0 12.0 1.0
 endloop
endfacet
facet normal -0.7071067690849304 -0.7071067690849304 0.0
 outer loop
  vertex 55.0 12.0 1.0
  vertex 56.0 11.0 0.0
  vertex 56.0 11.0 1.0
 endloop
endfacet
facet normal 0.0 1.0 0.0
 outer loop
  vertex 56.0 26.0 1.0
  vertex 55.0 26.0 0.0
  vertex 55.0 26.0 1.0
 endloop
endfacet
facet normal 0.0 1.0 0.0
 outer loop
  vertex 56.0 26.0 1.0
  vertex 56.0 26.0 0.0
  vertex 55.0 26.0 0.0
 endloop
endfacet
facet normal nan nan nan
 outer loop
  vertex 57.0 10.0 1.0
  vertex 57.0 10.0 1.0
  vertex 57.0 10.0 0.0
 endloop
endfacet
facet normal nan nan nan
 outer loop
  vertex 57.0 10.0 1.0
  vertex 57.0 10.0 0.0
  vertex 57.0 10.0 0.0
 endloop
endfacet
facet normal -0.7071067690849304 -0.7071067690849304 0.0
 outer loop
  vertex 56.0 11.0 0.0
  vertex 57.0 10.0 0.0
  vertex 56.0 11.0 1.0
 endloop
endfacet
facet normal -0.7071067690849304 -0.7071067690849304 0.0
 outer loop
  vertex 56.0 11.0 1.0
  vertex 57.0 10.0 0.0
  vertex 57.0 10.0 1.0
 endloop
endfacet
facet normal 0.0 1.0 0.0
 outer loop
  vertex 57.0 26.0 1.0
  vertex 56.0 26.0 0.0
  vertex 56.0 26.0 1.0
 endloop
endfacet
facet normal 0.0 1.0 0.0
 outer loop
  vertex 57.0 26.0 1.0
  vertex 57.0 26.0 0.0
  vertex 56.0 26.0 0.0
 endloop
endfacet
facet normal nan nan nan
 outer loop
  vertex 58.0 9.0 1.0
  vertex 58.0 9.0 1.0
  vertex 58.0 9.0 0.0
 endloop
endfacet
facet normal nan nan nan
 outer loop
  vertex 58.0 9.0 1.0
  vertex 58.0 9.0 0.0
  vertex 58.0 9.0 0.0
 endloop
endfacet
facet normal -0.7071067690849304 -0.7071067690849304 0.0
 outer loop
  vertex 57.0 10.0 0.0
  vertex 58.0 9.0 0.0
  vertex 57.0 10.0 1.0
 endloop
endfacet
facet normal -0.7071067690849304 -0.7071067690849304 0.0
 outer loop
  vertex 57.0 10.0 1.0
  vertex 58.0 9.0 0.0
  vertex 58.0 9.0 1.0
 endloop
endfacet
facet normal 0.0 1.0 0.0
 outer loop
  vertex 58.0 26.0 1.0
  vertex 57.0 26.0 0.0
  vertex 57.0 26.0 1.0
 endloop
endfacet
facet normal 0.0 1.0 0.0
 outer loop
  vertex 58.0 26.0 1.0
  vertex 58.0 26.0 0.0
  vertex 57.0 26.0 0.0
 endloop
endfacet
facet normal nan nan nan
 outer loop
  vertex 59.0 8.0 1.0
  vertex 59.0 8.0 1.0
  vertex 59.0 8.0 0.0
 endloop
endfacet
facet normal nan nan nan
 outer loop
  vertex 59.0 8.0 1.0
  vertex 59.0 8.0 0.0
  vertex 59.0 8.0 0.0
 endloop
endfacet
facet normal -0.7071067690849304 -0.7071067690849304 0.0
 outer loop
  vertex 58.0 9.0 0.0
  vertex 59.0 8.0 0.0
  vertex 58.0 9.0 1.0
 endloop
endfacet
facet normal -0.7071067690849304 -0.7071067690849304 0.0
 outer loop
  vertex 58.0 9.0 1.0
  vertex 59.0 8.0 0.0
  vertex 59.0 8.0 1.0
 endloop
endfacet
facet normal 0.0 1.0 0.0
 outer loop
  vertex 59.0 26.0 1.0
  vertex 58.0 26.0 0.0
  vertex 58.0 26.0 1.0
 endloop
endfacet
facet normal 0.0 1.0 0.0
 outer loop
  vertex 59.0 26.0 1.0
  vertex 59.0 26.0 0.0
  vertex 58.0 26.0 0.0
 endloop
endfacet
facet normal nan nan nan
 outer loop
  vertex 60.0 7.0 1.0
  vertex 60.0 7.0 1.0
  vertex 60.0 7.0 0.0
 endloop
endfacet
facet normal nan nan nan
 outer loop
  vertex 60.0 7.0 1.0
  vertex 60.0 7.0 0.0
  vertex 60.0 7.0 0.0
 endloop
endfacet
facet normal -0.7071067690849304 -0.7071067690849304 0.0
 outer loop
  vertex 59.0 8.0 0.0
  vertex 60.0 7.0 0.0
  vertex 59.0 8.0 1.0
 endloop
endfacet
facet normal -0.7071067690849304 -0.7071067690849304 0.0
 outer loop
  vertex 59.0 8.0 1.0
  vertex 60.0 7.0 0.0
  vertex 60.0 7.0 1.0
 endloop
endfacet
facet normal 0.0 1.0 0.0
 outer loop
  vertex 60.0 26.0 1.0
  vertex 59.0 26.0 0.0
  vertex 59.0 26.0 1.0
 endloop
endfacet
facet normal 0.0 1.0 0.0
 outer loop
  vertex 60.0 26.0 1.0
  vertex 60.0 26.0 0.0
  vertex 59.0 26.0 0.0
 endloop
endfacet
facet normal 0.0 -1.0 0.0
 outer loop
  vertex 60.0 7.0 0.0
  vertex 61.0 7.0 1.0
  vertex 60.0 7.0 1.0
 endloop
endfacet
facet normal 0.0 -1.0 0.0
 outer loop
  vertex 61.0 7.0 0.0
  vertex 61.0 7.0 1.0
  vertex 60.0 7.0 0.0
 endloop
endfacet
facet normal 0.0 1.0 0.0
 outer loop
  vertex 61.0 26.0 1.0
  vertex 60.0 26.0 0.0
  vertex 60.0 26.0 1.0
 endloop
endfacet
facet normal 0.0 1.0 0.0
 outer loop
  vertex 61.0 26.0 1.0
  vertex 61.0 26.0 0.0
  vertex 60.0 26.0 0.0
 endloop
endfacet
facet normal 0.0 -1.0 0.0
 outer loop
  vertex 61.0 7.0 0.0
  vertex 62.0 7.0 1.0
  vertex 61.0 7.0 1.0
 endloop
endfacet
facet normal 0.0 -1.0 0.0
 outer loop
  vertex 62.0 7.0 0.0
  vertex 62.0 7.0 1.0
  vertex 61.0 7.0 0.0
 endloop
endfacet
facet normal 0.0 1.0 0.0
 outer loop
  vertex 62.0 26.0 1.0
  vertex 61.0 26.0 0.0
  vertex 61.0 26.0 1.0
 endloop
endfacet
facet normal 0.0 1.0 0.0
 outer loop
  vertex 62.0 26.0 1.0
  vertex 62.0 26.0 0.0
  vertex 61.0 26.0 0.0
 endloop
endfacet
facet normal 0.0 -1.0 0.0
 outer loop
  vertex 62.0 7.0 0.0
  vertex 63.0 7.0 1.0
  vertex 62.0 7.0 1.0
 endloop
endfacet
facet normal 0.0 -1.0 0.0
 outer loop
  vertex 63.0 7.0 0.0
  vertex 63.0 7.0 1.0
  vertex 62.0 7.0 0.0
 endloop
endfacet
facet normal 0.0 1.0 0.0
 outer loop
  vertex 63.0 26.0 1.0
  vertex 62.0 26.0 0.0
  vertex 62.0 26.0 1.0
 endloop
endfacet
facet normal 0.0 1.0 0.0
 outer loop
  vertex 63.0 26.0 1.0
  vertex 63.0 26.0 0.0
  vertex 62.0 26.0 0.0
 endloop
endfacet
facet normal -1.0 0.0 0.0
 outer loop
  vertex 64.0 2.220446049250313e-16 0.0
  vertex 64.0 0.0 0.0
  vertex 64.0 0.0 1.0
 endloop
endfacet
facet normal -1.0 0.0 0.0
 outer loop
  vertex 64.0 2.220446049250313e-16 0.0
  vertex 64.0 0.0 1.0
  vertex 64.0 2.220446049250313e-16 1.0
 endloop
endfacet
facet normal nan nan nan
 outer loop
  vertex 63.0 7.0 1.0
  vertex 63.0 7.0 1.0
  vertex 63.0 7.0 0.0
 endloop
endfacet
facet normal nan nan nan
 outer loop
  vertex 63.0 7.0 1.0
  vertex 63.0 7.0 0.0
  vertex 63.0 7.0 0.0
 endloop
endfacet
facet normal 0.7071067690849304 -0.7071067690849304 0.0
 outer loop
  vertex 63.0 7.0 0.0
  vertex 64.0 8.0 0.0
  vertex 63.0 7.0 1.0
 endloop
endfacet
facet normal 0.7071067690849304 -0.7071067690849304 0.0
 outer loop
  vertex 63.0 7.0 1.0
  vertex 64.0 8.0 0.0
  vertex 64.0 8.0 1.0
 endloop
endfacet
facet normal 0.0 1.0 0.0
 outer loop
  vertex 64.0 26.0 1.0
  vertex 63.0 26.0 0.0
  vertex 63.0 26.0 1.0
 endloop
endfacet
facet normal 0.0 1.0 0.0
 outer loop
  vertex 64.0 26.0 1.0
  vertex 64.0 26.0 0.0
  vertex 63.0 26.0 0.0
 endloop
endfacet
facet normal -0.7071067690849304 0.7071067690849304 0.0
 outer loop
  vertex 64.0 2.220446049250313e-16 1.0
  vertex 65.0 1.0 1.0
  vertex 64.0 2.220446049250313e-16 0.0
 endloop
endfacet
facet normal -0.7071067690849304 0.7071067690849304 0.0
 outer loop
  vertex 64.0 2.220446049250313e-16 0.0
  vertex 65.0 1.0 1.0
  vertex 65.0 1.0 0.0
 endloop
endfacet
facet normal nan nan nan
 outer loop
  vertex 65.0 1.0 0.0
  vertex 65.0 1.0 0.0
  vertex 65.0 1.0 1.0
 endloop
endfacet
facet normal nan nan nan
 outer loop
  vertex 65.0 1.0 0.0
  vertex 65.0 1.0 1.0
  vertex 65.0 1.0 1.0
 endloop
endfacet
facet normal 0.0 -1.0 0.0
 outer loop
  vertex 64.0 8.0 0.0
  vertex 65.0 8.0 1.0
  vertex 64.0 8.0 1.0
 endloop
endfacet
facet normal 0.0 -1.0 0.0
 outer loop
  vertex 65.0 8.0 0.0
  vertex 65.0 8.0 1.0
  vertex 64.0 8.0 0.0
 endloop
endfacet
facet normal 0.0 1.0 0.0
 outer loop
  vertex 65.0 26.0 1.0
  vertex 64.0 26.0 0.0
  vertex 64.0 26.0 1.0
 endloop
endfacet
facet normal 0.0 1.0 0.0
 outer loop
  vertex 65.0 26.0 1.0
  vertex 65.0 26.0 0.0
  vertex 64.0 26.0 0.0
 endloop
endfacet
facet normal -0.7071067690849304 0.7071067690849304 0.0
 outer loop
  vertex 65.0 1.0 1.0
  vertex 66.0 2.0 1.0
  vertex 65.0 1.0 0.0
 endloop
endfacet
facet normal -0.7071067690849304 0.7071067690849304 0.0
 outer loop
  vertex 65.0 1.0 0.0
  vertex 66.0 2.0 1.0
  vertex 66.0 2.0 0.0
 endloop
endfacet
facet normal nan nan nan
 outer loop
  vertex 66.0 2.0 0.0
  vertex 66.0 2.0 0.0
  vertex 66.0 2.0 1.0
 endloop
endfacet
facet normal nan nan nan
 outer loop
  vertex 66.0 2.0 0.0
  vertex 66.0 2.0 1.0
  vertex 66.0 2.0 1.0
 endloop
endfacet
facet normal nan nan nan
 outer loop
  vertex 65.0 8.0 1.0
  vertex 65.0 8.0 1.0
  vertex 65.0 8.0 0.0
 endloop
endfacet
facet normal nan nan nan
 outer loop
  vertex 65.0 8.0 1.0
  vertex 65.0 8.0 0.0
  vertex 65.0 8.0 0.0
 endloop
endfacet
facet normal 0.7071067690849304 -0.7071067690849304 0.0
 outer loop
  vertex 65.0 8.0 0.0
  vertex 66.0 9.0 0.0
  vertex 65.0 8.0 1.0
 endloop
endfacet
facet normal 0.7071067690849304 -0.7071067690849304 0.0
 outer loop
  vertex 65.0 8.0 1.0
  vertex 66.0 9.0 0.0
  vertex 66.0 9.0 1.0
 endloop
endfacet
facet normal 0.0 1.0 0.0
 outer loop
  vertex 66.0 26.0 1.0
  vertex 65.0 26.0 0.0
  vertex 65.0 26.0 1.0
 endloop
endfacet
facet normal 0.0 1.0 0.0
 outer loop
  vertex 66.0 26.0 1.0
  vertex 66.0 26.0 0.0
  vertex 65.0 26.0 0.0
 endloop
endfacet
facet normal -0.7071067690849304 0.7071067690849304 0.0
 outer loop
  vertex 66.0 2.0 1.0
  vertex 67.0 3.0 1.0
  vertex 66.0 2.0 0.0
 endloop
endfacet
facet normal -0.7071067690849304 0.7071067690849304 0.0
 outer loop
  vertex 66.0 2.0 0.0
  vertex 67.0 3.0 1.0
  vertex 67.0 3.0 0.0
 endloop
endfacet
facet normal nan nan nan
 outer loop
  vertex 67.0 3.0 0.0
  vertex 67.0 3.0 0.0
  vertex 67.0 3.0 1.0
 endloop
endfacet
facet normal nan nan nan
 outer loop
  vertex 67.0 3.0 0.0
  vertex 67.0 3.0 1.0
  vertex 67.0 3.0 1.0
 endloop
endfacet
facet normal nan nan nan
 outer loop
  vertex 66.0 9.0 1.0
  vertex 66.0 9.0 1.0
  vertex 66.0 9.0 0.0
 endloop
endfacet
facet normal nan nan nan
 outer loop
  vertex 66.0 9.0 1.0
  vertex 66.0 9.0 0.0
  vertex 66.0 9.0 0.0
 endloop
endfacet
facet normal 0.7071067690849304 -0.7071067690849304 0.0
 outer loop
  vertex 66.0 9.0 0.0
  vertex 67.0 10.0 0.0
  vertex 66.0 9.0 1.0
 endloop
endfacet
facet normal 0.7071067690849304 -0.7071067690849304 0.0
 outer loop
  vertex 66.0 9.0 1.0
  vertex 67.0 10.0 0.0
  vertex 67.0 10.0 1.0
 endloop
endfacet
facet normal 0.0 1.0 0.0
 outer loop
  vertex 67.0 26.0 1.0
  vertex 66.0 26.0 0.0
  vertex 66.0 26.0 1.0
 endloop
endfacet
facet normal 0.0 1.0 0.0
 outer loop
  vertex 67.0 26.0 1.0
  vertex 67.0 26.0 0.0
  vertex 66.0 26.0 0.0
 endloop
endfacet
facet normal -0.7071067690849304 0.7071067690849304 0.0
 outer loop
  vertex 67.0 3.0 1.0
  vertex 68.0 4.0 1.0
  vertex 67.0 3.0 0.0
 endloop
endfacet
facet normal -0.7071067690849304 0.7071067690849304 0.0
 outer loop
  vertex 67.0 3.0 0.0
  vertex 68.0 4.0 1.0
  vertex 68.0 4.0 0.0
 endloop
endfacet
facet normal nan nan nan
 outer loop
  vertex 68.0 4.0 0.0
  vertex 68.0 4.0 0.0
  vertex 68.0 4.0 1.0
 endloop
endfacet
facet normal nan nan nan
 outer loop
  vertex 68.0 4.0 0.0
  vertex 68.0 4.0 1.0
  vertex 68.0 4.0 1.0
 endloop
endfacet
facet normal nan nan nan
 outer loop
  vertex 67.0 10.0 1.0
  vertex 67.0 10.0 1.0
  vertex 67.0 10.0 0.0
 endloop
endfacet
facet normal nan nan nan
 outer loop
  vertex 67.0 10.0 1.0
  vertex 67.0 10.0 0.0
  vertex 67.0 10.0 0.0
 endloop
endfacet
facet normal 0.7071067690849304 -0.7071067690849304 0.0
 outer loop
  vertex 67.0 10.0 0.0
  vertex 68.0 11.0 0.0
  vertex 67.0 10.0 1.0
 endloop
endfacet
facet normal 0.7071067690849304 -0.7071067690849304 0.0
 outer loop
  vertex 67.0 10.0 1.0
  vertex 68.0 11.0 0.0
  vertex 68.0 11.0 1.0
 endloop
endfacet
facet normal 0.0 1.0 0.0
 outer loop
  vertex 68.0 26.0 1.0
  vertex 67.0 26.0 0.0
  vertex 67.0 26.0 1.0
 endloop
endfacet
facet normal 0.0 1.0 0.0
 outer loop
  vertex 68.0 26.0 1.0
  vertex 68.0 26.0 0.0
  vertex 67.0 26.0 0.0
 endloop
endfacet
facet normal -0.7071067690849304 0.7071067690849304 0.0
 outer loop
  vertex 68.0 4.0 1.0
  vertex 69.0 5.0 1.0
  vertex 68.0 4.0 0.0
 endloop
endfacet
facet normal -0.7071067690849304 0.7071067690849304 0.0
 outer loop
  vertex 68.0 4.0 0.0
  vertex 69.0 5.0 1.0
  vertex 69.0 5.0 0.0
 endloop
endfacet
facet normal nan nan nan
 outer loop
  vertex 69.0 5.0 0.0
  vertex 69.0 5.0 0.0
  vertex 69.0 5.0 1.0
 endloop
endfacet
facet normal nan nan nan
 outer loop
  vertex 69.0 5.0 0.0
  vertex 69.0 5.0 1.0
  vertex 69.0 5.0 1.0
 endloop
endfacet
facet normal nan nan nan
 outer loop
  vertex 68.0 11.0 1.0
  vertex 68.0 11.0 1.0
  vertex 68.0 11.0 0.0
 endloop
endfacet
facet normal nan nan nan
 outer loop
  vertex 68.0 11.0 1.0
  vertex 68.0 11.0 0.0
  vertex 68.0 11.0 0.0
 endloop
endfacet
facet normal 0.7071067690849304 -0.7071067690849304 0.0
 outer loop
  vertex 68.0 11.0 0.0
  vertex 69.0 12.0 0.0
  vertex 68.0 11.0 1.0
 endloop
endfacet
facet normal 0.7071067690849304 -0.7071067690849304 0.0
 outer loop
  vertex 68.0 11.0 1.0
  vertex 69.0 12.0 0.0
  vertex 69.0 12.0 1.0
 endloop
endfacet
facet normal 0.0 1.0 0.0
 outer loop
  vertex 69.0 26.0 1.0
  vertex 68.0 26.0 0.0
  vertex 68.0 26.0 1.0
 endloop
endfacet
facet normal 0.0 1.0 0.0
 outer loop
  vertex 69.0 26.0 1.0
  vertex 69.0 26.0 0.0
  vertex 68.0 26.0 0.0
 endloop
endfacet
facet normal -0.7071067690849304 0.7071067690849304 0.0
 outer loop
  vertex 69.0 5.0 1.0
  vertex 70.0 6.0 1.0
  vertex 69.0 5.0 0.0
 endloop
endfacet
facet normal -0.7071067690849304 0.7071067690849304 0.0
 outer loop
  vertex 69.0 5.0 0.0
  vertex 70.0 6.0 1.0
  vertex 70.0 6.0 0.0
 endloop
endfacet
facet normal nan nan nan
 outer loop
  vertex 70.0 6.0 0.0
  vertex 70.0 6.0 0.0
  vertex 70.0 6.0 1.0
 endloop
endfacet
facet normal nan nan nan
 outer loop
  vertex 70.0 6.0 0.0
  vertex 70.0 6.0 1.0
  vertex 70.0 6.0 1.0
 endloop
endfacet
facet normal nan nan nan
 outer loop
  vertex 69.0 12.0 1.0
  vertex 69.0 12.0 1.0
  vertex 69.0 12.0 0.0
 endloop
endfacet
facet normal nan nan nan
 outer loop
  vertex 69.0 12.0 1.0
  vertex 69.0 12.0 0.0
  vertex 69.0 12.0 0.0
 endloop
endfacet
facet normal 0.7071067690849304 -0.7071067690849304 0.0
 outer loop
  vertex 69.0 12.0 0.0
  vertex 70.0 13.0 0.0
  vertex 69.0 12.0 1.0
 endloop
endfacet
facet normal 0.7071067690849304 -0.7071067690849304 0.0
 outer loop
  vertex 69.0 12.0 1.0
  vertex 70.0 13.0 0.0
  vertex 70.0 13.0 1.0
 endloop
endfacet
facet normal 0.0 1.0 0.0
 outer loop
  vertex 70.0 26.0 1.0
  vertex 69.0 26.0 0.0
  vertex 69.0 26.0 1.0
 endloop
endfacet
facet normal 0.0 1.0 0.0
 outer loop
  vertex 70.0 26.0 1.0
  vertex 70.0 26.0 0.0
  vertex 69.0 26.0 0.0
 endloop
endfacet
facet normal 0.0 1.0 0.0
 outer loop
  vertex 71.0 6.0 1.0
  vertex 70.0 6.0 0.0
  vertex 70.0 6.0 1.0
 endloop
endfacet
facet normal 0.0 1.0 0.0
 outer loop
  vertex 71.0 6.0 1.0
  vertex 71.0 6.0 0.0
  vertex 70.0 6.0 0.0
 endloop
endfacet
facet normal nan nan nan
 outer loop
  vertex 70.0 13.0 1.0
  vertex 70.0 13.0 1.0
  vertex 70.0 13.0 0.0
 endloop
endfacet
facet normal nan nan nan
 outer loop
  vertex 70.0 13.0 1.0
  vertex 70.0 13.0 0.0
  vertex 70.0 13.0 0.0
 endloop
endfacet
facet normal 0.7071067690849304 -0.7071067690849304 0.0
 outer loop
  vertex 70.0 13.0 0.0
  vertex 71.0 14.0 0.0
  vertex 70.0 13.0 1.0
 endloop
endfacet
facet normal 0.7071067690849304 -0.7071067690849304 0.0
 outer loop
  vertex 70.0 13.0 1.0
  vertex 71.0 14.0 0.0
  vertex 71.0 14.0 1.0
 endloop
endfacet
facet normal 0.0 1.0 0.0
 outer loop
  vertex 71.0 26.0 1.0
  vertex 70.0 26.0 0.0
  vertex 70.0 26.0 1.0
 endloop
endfacet
facet normal 0.0 1.0 0.0
 outer loop
  vertex 71.0 26.0 1.0
  vertex 71.0 26.0 0.0
  vertex 70.0 26.0 0.0
 endloop
endfacet
facet normal -0.7071067690849304 0.7071067690849304 0.0
 outer loop
  vertex 71.0 6.0 1.0
  vertex 72.0 7.0 1.0
  vertex 71.0 6.0 0.0
 endloop
endfacet
facet normal -0.7071067690849304 0.7071067690849304 0.0
 outer loop
  vertex 71.0 6.0 0.0
  vertex 72.0 7.0 1.0
  vertex 72.0 7.0 0.0
 endloop
endfacet
facet normal nan nan nan
 outer loop
  vertex 72.0 7.0 0.0
  vertex 72.0 7.0 0.0
  vertex 72.0 7.0 1.0
 endloop
endfacet
facet normal nan nan nan
 outer loop
  vertex 72.0 7.0 0.0
  vertex 72.0 7.0 1.0
  vertex 72.0 7.0 1.0
 endloop
endfacet
facet normal nan nan nan
 outer loop
  vertex 71.0 14.0 1.0
  vertex 71.0 14.0 1.0
  vertex 71.0 14.0 0.0
 endloop
endfacet
facet normal nan nan nan
 outer loop
  vertex 71.0 14.0 1.0
  vertex 71.0 14.0 0.0
  vertex 71.0 14.0 0.0
 endloop
endfacet
facet normal 0.7071067690849304 -0.7071067690849304 0.0
 outer loop
  vertex 71.0 14.0 0.0
  vertex 72.0 15.0 0.0
  vertex 71.0 14.0 1.0
 endloop
endfacet
facet normal 0.7071067690849304 -0.7071067690849304 0.0
 outer loop
  vertex 71.0 14.0 1.0
  vertex 72.0 15.0 0.0
  vertex 72.0 15.0 1.0
 endloop
endfacet
facet normal 0.0 1.0 0.0
 outer loop
  vertex 72.0 26.0 1.0
  vertex 71.0 26.0 0.0
  vertex 71.0 26.0 1.0
 endloop
endfacet
facet normal 0.0 1.0 0.0
 outer loop
  vertex 72.0 26.0 1.0
  vertex 72.0 26.0 0.0
  vertex 71.0 26.0 0.0
 endloop
endfacet
facet normal -0.7071067690849304 0.7071067690849304 0.0
 outer loop
  vertex 72.0 7.0 1.0
  vertex 73.0 8.0 1.0
  vertex 72.0 7.0 0.0
 endloop
endfacet
facet normal -0.7071067690849304 0.7071067690849304 0.0
 outer loop
  vertex 72.0 7.0 0.0
  vertex 73.0 8.0 1.0
  vertex 73.0 8.0 0.0
 endloop
endfacet
facet normal nan nan nan
 outer loop
  vertex 73.0 8.0 0.0
  vertex 73.0 8.0 0.0
  vertex 73.0 8.0 1.0
 endloop
endfacet
facet normal nan nan nan
 outer loop
  vertex 73.0 8.0 0.0
  vertex 73.0 8.0 1.0
  vertex 73.0 8.0 1.0
 endloop
endfacet
facet normal nan nan nan
 outer loop
  vertex 72.0 15.0 1.0
  vertex 72.0 15.0 1.0
  vertex 72.0 15.0 0.0
 endloop
endfacet
facet normal nan nan nan
 outer loop
  vertex 72.0 15.0 1.0
  vertex 72.0 15.0 0.0
  vertex 72.0 15.0 0.0
 endloop
endfacet
facet normal 0.7071067690849304 -0.7071067690849304 0.0
 outer loop
  vertex 72.0 15.0 0.0
  vertex 73.0 16.0 0.0
  vertex 72.0 15.0 1.0
 endloop
endfacet
facet normal 0.7071067690849304 -0.7071067690849304 0.0
 outer loop
  vertex 72.0 15.0 1.0
  vertex 73.0 16.0 0.0
  vertex 73.0 16.0 1.0
 endloop
endfacet
facet normal 0.0 1.0 0.0
 outer loop
  vertex 73.0 26.0 1.0
  vertex 72.0 26.0 0.0
  vertex 72.0 26.0 1.0
 endloop
endfacet
facet normal 0.0 1.0 0.0
 outer loop
  vertex 73.0 26.0 1.0
  vertex 73.0 26.0 0.0
  vertex 72.0 26.0 0.0
 endloop
endfacet
facet normal -0.7071067690849304 0.7071067690849304 0.0
 outer loop
  vertex 73.0 8.0 1.0
  vertex 74.0 9.0 1.0
  vertex 73.0 8.0 0.0
 endloop
endfacet
facet normal -0.7071067690849304 0.7071067690849304 0.0
 outer loop
  vertex 73.0 8.0 0.0
  vertex 74.0 9.0 1.0
  vertex 74.0 9.0 0.0
 endloop
endfacet
facet normal nan nan nan
 outer loop
  vertex 74.0 9.0 0.0
  vertex 74.0 9.0 0.0
  vertex 74.0 9.0 1.0
 endloop
endfacet
facet normal nan nan nan
 outer loop
  vertex 74.0 9.0 0.0
  vertex 74.0 9.0 1.0
  vertex 74.0 9.0 1.0
 endloop
endfacet
facet normal nan nan nan
 outer loop
  vertex 73.0 16.0 1.0
  vertex 73.0 16.0 1.0
  vertex 73.0 16.0 0.0
 endloop
endfacet
facet normal nan nan nan
 outer loop
  vertex 73.0 16.0 1.0
  vertex 73.0 16.0 0.0
  vertex 73.0 16.0 0.0
 endloop
endfacet
facet normal 0.7071067690849304 -0.7071067690849304 0.0
 outer loop
  vertex 73.0 16.0 0.0
  vertex 74.0 17.0 0.0
  vertex 73.0 16.0 1.0
 endloop
endfacet
facet normal 0.7071067690849304 -0.7071067690849304 0.0
 outer loop
  vertex 73.0 16.0 1.0
  vertex 74.0 17.0 0.0
  vertex 74.0 17.0 1.0
 endloop
endfacet
facet normal 0.0 1.0 0.0
 outer loop
  vertex 74.0 26.0 1.0
  vertex 73.0 26.0 0.0
  vertex 73.0 26.0 1.0
 endloop
endfacet
facet normal 0.0 1.0 0.0
 outer loop
  vertex 74.0 26.0 1.0
  vertex 74.0 26.0 0.0
  vertex 73.0 26.0 0.0
 endloop
endfacet
facet normal -0.7071067690849304 0.7071067690849304 0.0
 outer loop
  vertex 74.0 9.0 1.0
  vertex 75.0 10.0 1.0
  vertex 74.0 9.0 0.0
 endloop
endfacet
facet normal -0.7071067690849304 0.7071067690849304 0.0
 outer loop
  vertex 74.0 9.0 0.0
  vertex 75.0 10.0 1.0
  vertex 75.0 10.0 0.0
 endloop
endfacet
facet normal nan nan nan
 outer loop
  vertex 75.0 10.0 0.0
  vertex 75.0 10.0 0.0
  vertex 75.0 10.0 1.0
 endloop
endfacet
facet normal nan nan nan
 outer loop
  vertex 75.0 10.0 0.0
  vertex 75.0 10.0 1.0
  vertex 75.0 10.0 1.0
 endloop
endfacet
facet normal nan nan nan
 outer loop
  vertex 74.0 17.0 1.0
  vertex 74.0 17.0 1.0
  vertex 74.0 17.0 0.0
 endloop
endfacet
facet normal nan nan nan
 outer loop
  vertex 74.0 17.0 1.0
  vertex 74.0 17.0 0.0
  vertex 74.0 17.0 0.0
 endloop
endfacet
facet normal 0.7071067690849304 -0.7071067690849304 0.0
 outer loop
  vertex 74.0 17.0 0.0
  vertex 75.0 18.0 0.0
  vertex 74.0 17.0 1.0
 endloop
endfacet
facet normal 0.7071067690849304 -0.7071067690849304 0.0
 outer loop
  vertex 74.0 17.0 1.0
  vertex 75.0 18.0 0.0
  vertex 75.0 18.0 1.0
 endloop
endfacet
facet normal 0.0 1.0 0.0
 outer loop
  vertex 75.0 26.0 1.0
  vertex 74.0 26.0 0.0
  vertex 74.0 26.0 1.0
 endloop
endfacet
facet normal 0.0 1.0 0.0
 outer loop
  vertex 75.0 26.0 1.0
  vertex 75.0 26.0 0.0
  vertex 74.0 26.0 0.0
 endloop
endfacet
facet normal -0.7071067690849304 0.7071067690849304 0.0
 outer loop
  vertex 75.0 10.0 1.0
  vertex 76.0 11.0 1.0
  vertex 75.0 10.0 0.0
 endloop
endfacet
facet normal -0.7071067690849304 0.7071067690849304 0.0
 outer loop
  vertex 75.0 10.0 0.0
  vertex 76.0 11.0 1.0
  vertex 76.0 11.0 0.0
 endloop
endfacet
facet normal nan nan nan
 outer loop
  vertex 76.0 11.0 0.0
  vertex 76.0 11.0 0.0
  vertex 76.0 11.0 1.0
 endloop
endfacet
facet normal nan nan nan
 outer loop
  vertex 76.0 11.0 0.0
  vertex 76.0 11.0 1.0
  vertex 76.0 11.0 1.0
 endloop
endfacet
facet normal nan nan nan
 outer loop
  vertex 75.0 18.0 1.0
  vertex 75.0 18.0 1.0
  vertex 75.0 18.0 0.0
 endloop
endfacet
facet normal nan nan nan
 outer loop
  vertex 75.0 18.0 1.0
  vertex 75.0 18.0 0.0
  vertex 75.0 18.0 0.0
 endloop
endfacet
facet normal 0.7071067690849304 -0.7071067690849304 0.0
 outer loop
  vertex 75.0 18.0 0.0
  vertex 76.0 19.0 0.0
  vertex 75.0 18.0 1.0
 endloop
endfacet
facet normal 0.7071067690849304 -0.7071067690849304 0.0
 outer loop
  vertex 75.0 18.0 1.0
  vertex 76.0 19.0 0.0
  vertex 76.0 19.0 1.0
 endloop
endfacet
facet normal 0.0 1.0 0.0
 outer loop
  vertex 76.0 26.0 1.0
  vertex 75.0 26.0 0.0
  vertex 75.0 26.0 1.0
 endloop
endfacet
facet normal 0.0 1.0 0.0
 outer loop
  vertex 76.0 26.0 1.0
  vertex 76.0 26.0 0.0
  vertex 75.0 26.0 0.0
 endloop
endfacet
facet normal -0.7071067690849304 0.7071067690849304 0.0
 outer loop
  vertex 76.0 11.0 1.0
  vertex 77.0 12.0 1.0
  vertex 76.0 11.0 0.0
 endloop
endfacet
facet normal -0.7071067690849304 0.7071067690849304 0.0
 outer loop
  vertex 76.0 11.0 0.0
  vertex 77.0 12.0 1.0
  vertex 77.0 12.0 0.0
 endloop
endfacet
facet normal nan nan nan
 outer loop
  vertex 77.0 12.0 0.0
  vertex 77.0 12.0 0.0
  vertex 77.0 12.0 1.0
 endloop
endfacet
facet normal nan nan nan
 outer loop
  vertex 77.0 12.0 0.0
  vertex 77.0 12.0 1.0
  vertex 77.0 12.0 1.0
 endloop
endfacet
facet normal nan nan nan
 outer loop
  vertex 76.0 19.0 1.0
  vertex 76.0 19.0 1.0
  vertex 76.0 19.0 0.0
 endloop
endfacet
facet normal nan nan nan
 outer loop
  vertex 76.0 19.0 1.0
  vertex 76.0 19.0 0.0
  vertex 76.0 19.0 0.0
 endloop
endfacet
facet normal 0.7071067690849304 -0.7071067690849304 0.0
 outer loop
  vertex 76.0 19.0 0.0
  vertex 77.0 20.0 0.0
  vertex 76.0 19.0 1.0
 endloop
endfacet
facet normal 0.7071067690849304 -0.7071067690849304 0.0
 outer loop
  vertex 76.0 19.0 1.0
  vertex 77.0 20.0 0.0
  vertex 77.0 20.0 1.0
 endloop
endfacet
facet normal 0.0 1.0 0.0
 outer loop
  vertex 77.0 26.0 1.0
  vertex 76.0 26.0 0.0
  vertex 76.0 26.0 1.0
 endloop
endfacet
facet normal 0.0 1.0 0.0
 outer loop
  vertex 77.0 26.0 1.0
  vertex 77.0 26.0 0.0
  vertex 76.0 26.0 0.0
 endloop
endfacet
facet normal -0.7071067690849304 0.7071067690849304 0.0
 outer loop
  vertex 77.0 12.0 1.0
  vertex 78.0 13.0 1.0
  vertex 77.0 12.0 0.0
 endloop
endfacet
facet normal -0.7071067690849304 0.7071067690849304 0.0
 outer loop
  vertex 77.0 12.0 0.0
  vertex 78.0 13.0 1.0
  vertex 78.0 13.0 0.0
 endloop
endfacet
facet normal nan nan nan
 outer loop
  vertex 78.0 13.0 0.0
  vertex 78.0 13.0 0.0
  vertex 78.0 13.0 1.0
 endloop
endfacet
facet normal nan nan nan
 outer loop
  vertex 78.0 13.0 0.0
  vertex 78.0 13.0 1.0
  vertex 78.0 13.0 1.0
 endloop
endfacet
facet normal nan nan nan
 outer loop
  vertex 77.0 20.0 1.0
  vertex 77.0 20.0 1.0
  vertex 77.0 20.0 0.0
 endloop
endfacet
facet normal nan nan nan
 outer loop
  vertex 77.0 20.0 1.0
  vertex 77.0 20.0 0.0
  vertex 77.0 20.0 0.0
 endloop
endfacet
facet normal 0.7071067690849304 -0.7071067690849304 0.0
 outer loop
  vertex 77.0 20.0 0.0
  vertex 78.0 21.0 0.0
  vertex 77.0 20.0 1.0
 endloop
endfacet
facet normal 0.7071067690849304 -0.7071067690849304 0.0
 outer loop
  vertex 77.0 20.0 1.0
  vertex 78.0 21.0 0.0
  vertex 78.0 21.0 1.0
 endloop
endfacet
facet normal 0.0 1.0 0.0
 outer loop
  vertex 78.0 26.0 1.0
  vertex 77.0 26.0 0.0
  vertex 77.0 26.0 1.0
 endloop
endfacet
facet normal 0.0 1.0 0.0
 outer loop
  vertex 78.0 26.0 1.0
  vertex 78.0 26.0 0.0
  vertex 77.0 26.0 0.0
 endloop
endfacet
facet normal -0.7071067690849304 0.7071067690849304 0.0
 outer loop
  vertex 78.0 13.0 1.0
  vertex 79.0 14.0 1.0
  vertex 78.0 13.0 0.0
 endloop
endfacet
facet normal -0.7071067690849304 0.7071067690849304 0.0
 outer loop
  vertex 78.0 13.0 0.0
  vertex 79.0 14.0 1.0
  vertex 79.0 14.0 0.0
 endloop
endfacet
facet normal nan nan nan
 outer loop
  vertex 79.0 14.0 0.0
  vertex 79.0 14.0 0.0
  vertex 79.0 14.0 1.0
 endloop
endfacet
facet normal nan nan nan
 outer loop
  vertex 79.0 14.0 0.0
  vertex 79.0 14.0 1.0
  vertex 79.0 14.0 1.0
 endloop
endfacet
facet normal nan nan nan
 outer loop
  vertex 78.0 21.0 1.0
  vertex 78.0 21.0 1.0
  vertex 78.0 21.0 0.0
 endloop
endfacet
facet normal nan nan nan
 outer loop
  vertex 78.0 21.0 1.0
  vertex 78.0 21.0 0.0
  vertex 78.0 21.0 0.0
 endloop
endfacet
facet normal 0.7071067690849304 -0.7071067690849304 0.0
 outer loop
  vertex 78.0 21.0 0.0
  vertex 79.0 22.0 0.0
  vertex 78.0 21.0 1.0
 endloop
endfacet
facet normal 0.7071067690849304 -0.7071067690849304 0.0
 outer loop
  vertex 78.0 21.0 1.0
  vertex 79.0 22.0 0.0
  vertex 79.0 22.0 1.0
 endloop
endfacet
facet normal 0.0 1.0 0.0
 outer loop
  vertex 79.0 26.0 1.0
  vertex 78.0 26.0 0.0
  vertex 78.0 26.0 1.0
 endloop
endfacet
facet normal 0.0 1.0 0.0
 outer loop
  vertex 79.0 26.0 1.0
  vertex 79.0 26.0 0.0
  vertex 78.0 26.0 0.0
 endloop
endfacet
facet normal -0.7071067690849304 0.7071067690849304 0.0
 outer loop
  vertex 79.0 14.0 1.0
  vertex 80.0 15.0 1.0
  vertex 79.0 14.0 0.0
 endloop
endfacet
facet normal -0.7071067690849304 0.7071067690849304 0.0
 outer loop
  vertex 79.0 14.0 0.0
  vertex 80.0 15.0 1.0
  vertex 80.0 15.0 0.0
 endloop
endfacet
facet normal nan nan nan
 outer loop
  vertex 80.0 15.0 0.0
  vertex 80.0 15.0 0.0
  vertex 80.0 15.0 1.0
 endloop
endfacet
facet normal nan nan nan
 outer loop
  vertex 80.0 15.0 0.0
  vertex 80.0 15.0 1.0
  vertex 80.0 15.0 1.0
 endloop
endfacet
facet normal nan nan nan
 outer loop
  vertex 79.0 22.0 1.0
  vertex 79.0 22.0 1.0
  vertex 79.0 22.0 0.0
 endloop
endfacet
facet normal nan nan nan
 outer loop
  vertex 79.0 22.0 1.0
  vertex 79.0 22.0 0.0
  vertex 79.0 22.0 0.0
 endloop
endfacet
facet normal 0.7071067690849304 -0.7071067690849304 0.0
 outer loop
  vertex 79.0 22.0 0.0
  vertex 80.0 23.0 0.0
  vertex 79.0 22.0 1.0
 endloop
endfacet
facet normal 0.7071067690849304 -0.7071067690849304 0.0
 outer loop
  vertex 79.0 22.0 1.0
  vertex 80.0 23.0 0.0
  vertex 80.0 23.0 1.0
 endloop
endfacet
facet normal 0.0 1.0 0.0
 outer loop
  vertex 80.0 26.0 1.0
  vertex 79.0 26.0 0.0
  vertex 79.0 26.0 1.0
 endloop
endfacet
facet normal 0.0 1.0 0.0
 outer loop
  vertex 80.0 26.0 1.0
  vertex 80.0 26.0 0.0
  vertex 79.0 26.0 0.0
 endloop
endfacet
facet normal -0.7071067690849304 0.7071067690849304 0.0
 outer loop
  vertex 80.0 15.0 1.0
  vertex 81.0 16.0 1.0
  vertex 80.0 15.0 0.0
 endloop
endfacet
facet normal -0.7071067690849304 0.7071067690849304 0.0
 outer loop
  vertex 80.0 15.0 0.0
  vertex 81.0 16.0 1.0
  vertex 81.0 16.0 0.0
 endloop
endfacet
facet normal nan nan nan
 outer loop
  vertex 81.0 16.0 0.0
  vertex 81.0 16.0 0.0
  vertex 81.0 16.0 1.0
 endloop
endfacet
facet normal nan nan nan
 outer loop
  vertex 81.0 16.0 0.0
  vertex 81.0 16.0 1.0
  vertex 81.0 16.0 1.0
 endloop
endfacet
facet normal nan nan nan
 outer loop
  vertex 80.0 23.0 1.0
  vertex 80.0 23.0 1.0
  vertex 80.0 23.0 0.0
 endloop
endfacet
facet normal nan nan nan
 outer loop
  vertex 80.0 23.0 1.0
  vertex 80.0 23.0 0.0
  vertex 80.0 23.0 0.0
 endloop
endfacet
facet normal 0.7071067690849304 -0.7071067690849304 0.0
 outer loop
  vertex 80.0 23.0 0.0
  vertex 81.0 24.0 0.0
  vertex 80.0 23.0 1.0
 endloop
endfacet
facet normal 0.7071067690849304 -0.7071067690849304 0.0
 outer loop
  vertex 80.0 23.0 1.0
  vertex 81.0 24.0 0.0
  vertex 81.0 24.0 1.0
 endloop
endfacet
facet normal 0.0 1.0 0.0
 outer loop
  vertex 81.0 26.0 1.0
  vertex 80.0 26.0 0.0
  vertex 80.0 26.0 1.0
 endloop
endfacet
facet normal 0.0 1.0 0.0
 outer loop
  vertex 81.0 26.0 1.0
  vertex 81.0 26.0 0.0
  vertex 80.0 26.0 0.0
 endloop
endfacet
facet normal -0.7071067690849304 0.7071067690849304 0.0
 outer loop
  vertex 81.0 16.0 1.0
  vertex 82.0 17.0 1.0
  vertex 81.0 16.0 0.0
 endloop
endfacet
facet normal -0.7071067690849304 0.7071067690849304 0.0
 outer loop
  vertex 81.0 16.0 0.0
  vertex 82.0 17.0 1.0
  vertex 82.0 17.0 0.0
 endloop
endfacet
facet normal nan nan nan
 outer loop
  vertex 82.0 17.0 0.0
  vertex 82.0 17.0 0.0
  vertex 82.0 17.0 1.0
 endloop
endfacet
facet normal nan nan nan
 outer loop
  vertex 82.0 17.0 0.0
  vertex 82.0 17.0 1.0
  vertex 82.0 17.0 1.0
 endloop
endfacet
facet normal nan nan nan
 outer loop
  vertex 81.0 24.0 1.0
  vertex 81.0 24.0 1.0
  vertex 81.0 24.0 0.0
 endloop
endfacet
facet normal nan nan nan
 outer loop
  vertex 81.0 24.0 1.0
  vertex 81.0 24.0 0.0
  vertex 81.0 24.0 0.0
 endloop
endfacet
facet normal 1.0 0.0 0.0
 outer loop
  vertex 81.0 24.0 0.0
  vertex 81.0 25.0 1.0
  vertex 81.0 24.0 1.0
 endloop
endfacet
facet normal 1.0 0.0 0.0
 outer loop
  vertex 81.0 24.0 0.0
  vertex 81.0 25.0 0.0
  vertex 81.0 25.0 1.0
 endloop
endfacet
facet normal 1.0 0.0 0.0
 outer loop
  vertex 81.0 25.0 0.0
  vertex 81.0 26.0 1.0
  vertex 81.0 25.0 1.0
 endloop
endfacet
facet normal 1.0 0.0 0.0
 outer loop
  vertex 81.0 25.0 0.0
  vertex 81.0 26.0 0.0
  vertex 81.0 26.0 1.0
 endloop
endfacet
facet normal nan nan nan
 outer loop
  vertex 81.0 26.0 0.0
  vertex 81.0 26.0 0.0
  vertex 81.0 26.0 1.0
 endloop
endfacet
facet normal nan nan nan
 outer loop
  vertex 81.0 26.0 0.0
  vertex 81.0 26.0 1.0
  vertex 81.0 26.0 1.0
 endloop
endfacet
facet normal -0.7071067690849304 0.7071067690849304 0.0
 outer loop
  vertex 82.0 17.0 1.0
  vertex 83.0 18.0 1.0
  vertex 82.0 17.0 0.0
 endloop
endfacet
facet normal -0.7071067690849304 0.7071067690849304 0.0
 outer loop
  vertex 82.0 17.0 0.0
  vertex 83.0 18.0 1.0
  vertex 83.0 18.0 0.0
 endloop
endfacet
facet normal nan nan nan
 outer loop
  vertex 83.0 18.0 0.0
  vertex 83.0 18.0 0.0
  vertex 83.0 18.0 1.0
 endloop
endfacet
facet normal nan nan nan
 outer loop
  vertex 83.0 18.0 0.0
  vertex 83.0 18.0 1.0
  vertex 83.0 18.0 1.0
 endloop
endfacet
facet normal -0.7071067690849304 0.7071067690849304 0.0
 outer loop
  vertex 83.0 18.0 1.0
  vertex 84.0 19.0 1.0
  vertex 83.0 18.0 0.0
 endloop
endfacet
facet normal -0.7071067690849304 0.7071067690849304 0.0
 outer loop
  vertex 83.0 18.0 0.0
  vertex 84.0 19.0 1.0
  vertex 84.0 19.0 0.0
 endloop
endfacet
facet normal nan nan nan
 outer loop
  vertex 84.0 19.0 0.0
  vertex 84.0 19.0 0.0
  vertex 84.0 19.0 1.0
 endloop
endfacet
facet normal nan nan nan
 outer loop
  vertex 84.0 19.0 0.0
  vertex 84.0 19.0 1.0
  vertex 84.0 19.0 1.0
 endloop
endfacet
facet normal -0.7071067690849304 0.7071067690849304 0.0
 outer loop
  vertex 84.0 19.0 1.0
  vertex 85.0 20.0 1.0
  vertex 84.0 19.0 0.0
 endloop
endfacet
facet normal -0.7071067690849304 0.7071067690849304 0.0
 outer loop
  vertex 84.0 19.0 0.0
  vertex 85.0 20.0 1.0
  vertex 85.0 20.0 0.0
 endloop
endfacet
facet normal nan nan nan
 outer loop
  vertex 85.0 20.0 0.0
  vertex 85.0 20.0 0.0
  vertex 85.0 20.0 1.0
 endloop
endfacet
facet normal nan nan nan
 outer loop
  vertex 85.0 20.0 0.0
  vertex 85.0 20.0 1.0
  vertex 85.0 20.0 1.0
 endloop
endfacet
facet normal -0.7071067690849304 0.7071067690849304 0.0
 outer loop
  vertex 85.0 20.0 1.0
  vertex 86.0 21.0 1.0
  vertex 85.0 20.0 0.0
 endloop
endfacet
facet normal -0.7071067690849304 0.7071067690849304 0.0
 outer loop
  vertex 85.0 20.0 0.0
  vertex 86.0 21.0 1.0
  vertex 86.0 21.0 0.0
 endloop
endfacet
facet normal nan nan nan
 outer loop
  vertex 86.0 21.0 0.0
  vertex 86.0 21.0 0.0
  vertex 86.0 21.0 1.0
 endloop
endfacet
facet normal nan nan nan
 outer loop
  vertex 86.0 21.0 0.0
  vertex 86.0 21.0 1.0
  vertex 86.0 21.0 1.0
 endloop
endfacet
facet normal 0.0 1.0 0.0
 outer loop
  vertex 87.0 21.0 1.0
  vertex 86.0 21.0 0.0
  vertex 86.0 21.0 1.0
 endloop
endfacet
facet normal 0.0 1.0 0.0
 outer loop
  vertex 87.0 21.0 1.0
  vertex 87.0 21.0 0.0
  vertex 86.0 21.0 0.0
 endloop
endfacet
facet normal -0.7071067690849304 0.7071067690849304 0.0
 outer loop
  vertex 87.0 21.0 1.0
  vertex 88.0 22.0 1.0
  vertex 87.0 21.0 0.0
 endloop
endfacet
facet normal -0.7071067690849304 0.7071067690849304 0.0
 outer loop
  vertex 87.0 21.0 0.0
  vertex 88.0 22.0 1.0
  vertex 88.0 22.0 0.0
 endloop
endfacet
facet normal nan nan nan
 outer loop
  vertex 88.0 22.0 0.0
  vertex 88.0 22.0 0.0
  vertex 88.0 22.0 1.0
 endloop
endfacet
facet normal nan nan nan
 outer loop
  vertex 88.0 22.0 0.0
  vertex 88.0 22.0 1.0
  vertex 88.0 22.0 1.0
 endloop
endfacet
facet normal 0.0 1.0 0.0
 outer loop
  vertex 89.0 22.0 1.0
  vertex 88.0 22.0 0.0
  vertex 88.0 22.0 1.0
 endloop
endfacet
facet normal 0.0 1.0 0.0
 outer loop
  vertex 89.0 22.0 1.0
  vertex 89.0 22.0 0.0
  vertex 88.0 22.0 0.0
 endloop
endfacet
endsolid
